%TF.GenerationSoftware,KiCad,Pcbnew,8.0.6-8.0.6-0~ubuntu24.04.1*%
%TF.CreationDate,2025-11-22T22:57:42-05:00*%
%TF.ProjectId,rook,726f6f6b-2e6b-4696-9361-645f70636258,rev?*%
%TF.SameCoordinates,Original*%
%TF.FileFunction,Legend,Bot*%
%TF.FilePolarity,Positive*%
%FSLAX46Y46*%
G04 Gerber Fmt 4.6, Leading zero omitted, Abs format (unit mm)*
G04 Created by KiCad (PCBNEW 8.0.6-8.0.6-0~ubuntu24.04.1) date 2025-11-22 22:57:42*
%MOMM*%
%LPD*%
G01*
G04 APERTURE LIST*
%ADD10C,0.150000*%
%ADD11C,0.381000*%
%ADD12C,0.120000*%
%ADD13C,0.100000*%
%ADD14C,1.752600*%
G04 APERTURE END LIST*
D10*
X53069819Y-29036779D02*
X52069819Y-29036779D01*
X52069819Y-29036779D02*
X52069819Y-29417731D01*
X52069819Y-29417731D02*
X52117438Y-29512969D01*
X52117438Y-29512969D02*
X52165057Y-29560588D01*
X52165057Y-29560588D02*
X52260295Y-29608207D01*
X52260295Y-29608207D02*
X52403152Y-29608207D01*
X52403152Y-29608207D02*
X52498390Y-29560588D01*
X52498390Y-29560588D02*
X52546009Y-29512969D01*
X52546009Y-29512969D02*
X52593628Y-29417731D01*
X52593628Y-29417731D02*
X52593628Y-29036779D01*
X52069819Y-30227255D02*
X52069819Y-30322493D01*
X52069819Y-30322493D02*
X52117438Y-30417731D01*
X52117438Y-30417731D02*
X52165057Y-30465350D01*
X52165057Y-30465350D02*
X52260295Y-30512969D01*
X52260295Y-30512969D02*
X52450771Y-30560588D01*
X52450771Y-30560588D02*
X52688866Y-30560588D01*
X52688866Y-30560588D02*
X52879342Y-30512969D01*
X52879342Y-30512969D02*
X52974580Y-30465350D01*
X52974580Y-30465350D02*
X53022200Y-30417731D01*
X53022200Y-30417731D02*
X53069819Y-30322493D01*
X53069819Y-30322493D02*
X53069819Y-30227255D01*
X53069819Y-30227255D02*
X53022200Y-30132017D01*
X53022200Y-30132017D02*
X52974580Y-30084398D01*
X52974580Y-30084398D02*
X52879342Y-30036779D01*
X52879342Y-30036779D02*
X52688866Y-29989160D01*
X52688866Y-29989160D02*
X52450771Y-29989160D01*
X52450771Y-29989160D02*
X52260295Y-30036779D01*
X52260295Y-30036779D02*
X52165057Y-30084398D01*
X52165057Y-30084398D02*
X52117438Y-30132017D01*
X52117438Y-30132017D02*
X52069819Y-30227255D01*
X53165057Y-30751065D02*
X53165057Y-31512969D01*
X52165057Y-31703446D02*
X52117438Y-31751065D01*
X52117438Y-31751065D02*
X52069819Y-31846303D01*
X52069819Y-31846303D02*
X52069819Y-32084398D01*
X52069819Y-32084398D02*
X52117438Y-32179636D01*
X52117438Y-32179636D02*
X52165057Y-32227255D01*
X52165057Y-32227255D02*
X52260295Y-32274874D01*
X52260295Y-32274874D02*
X52355533Y-32274874D01*
X52355533Y-32274874D02*
X52498390Y-32227255D01*
X52498390Y-32227255D02*
X53069819Y-31655827D01*
X53069819Y-31655827D02*
X53069819Y-32274874D01*
X52069819Y-32893922D02*
X52069819Y-32989160D01*
X52069819Y-32989160D02*
X52117438Y-33084398D01*
X52117438Y-33084398D02*
X52165057Y-33132017D01*
X52165057Y-33132017D02*
X52260295Y-33179636D01*
X52260295Y-33179636D02*
X52450771Y-33227255D01*
X52450771Y-33227255D02*
X52688866Y-33227255D01*
X52688866Y-33227255D02*
X52879342Y-33179636D01*
X52879342Y-33179636D02*
X52974580Y-33132017D01*
X52974580Y-33132017D02*
X53022200Y-33084398D01*
X53022200Y-33084398D02*
X53069819Y-32989160D01*
X53069819Y-32989160D02*
X53069819Y-32893922D01*
X53069819Y-32893922D02*
X53022200Y-32798684D01*
X53022200Y-32798684D02*
X52974580Y-32751065D01*
X52974580Y-32751065D02*
X52879342Y-32703446D01*
X52879342Y-32703446D02*
X52688866Y-32655827D01*
X52688866Y-32655827D02*
X52450771Y-32655827D01*
X52450771Y-32655827D02*
X52260295Y-32703446D01*
X52260295Y-32703446D02*
X52165057Y-32751065D01*
X52165057Y-32751065D02*
X52117438Y-32798684D01*
X52117438Y-32798684D02*
X52069819Y-32893922D01*
X54669819Y-37793922D02*
X54669819Y-38365350D01*
X55669819Y-38079636D02*
X54669819Y-38079636D01*
X54669819Y-38603446D02*
X55669819Y-39270112D01*
X54669819Y-39270112D02*
X55669819Y-38603446D01*
X53069819Y-38308207D02*
X52593628Y-37974874D01*
X53069819Y-37736779D02*
X52069819Y-37736779D01*
X52069819Y-37736779D02*
X52069819Y-38117731D01*
X52069819Y-38117731D02*
X52117438Y-38212969D01*
X52117438Y-38212969D02*
X52165057Y-38260588D01*
X52165057Y-38260588D02*
X52260295Y-38308207D01*
X52260295Y-38308207D02*
X52403152Y-38308207D01*
X52403152Y-38308207D02*
X52498390Y-38260588D01*
X52498390Y-38260588D02*
X52546009Y-38212969D01*
X52546009Y-38212969D02*
X52593628Y-38117731D01*
X52593628Y-38117731D02*
X52593628Y-37736779D01*
X52069819Y-38641541D02*
X53069819Y-39308207D01*
X52069819Y-39308207D02*
X53069819Y-38641541D01*
X35963220Y-47469819D02*
X35963220Y-46469819D01*
X35963220Y-46469819D02*
X35582268Y-46469819D01*
X35582268Y-46469819D02*
X35487030Y-46517438D01*
X35487030Y-46517438D02*
X35439411Y-46565057D01*
X35439411Y-46565057D02*
X35391792Y-46660295D01*
X35391792Y-46660295D02*
X35391792Y-46803152D01*
X35391792Y-46803152D02*
X35439411Y-46898390D01*
X35439411Y-46898390D02*
X35487030Y-46946009D01*
X35487030Y-46946009D02*
X35582268Y-46993628D01*
X35582268Y-46993628D02*
X35963220Y-46993628D01*
X34439411Y-47469819D02*
X35010839Y-47469819D01*
X34725125Y-47469819D02*
X34725125Y-46469819D01*
X34725125Y-46469819D02*
X34820363Y-46612676D01*
X34820363Y-46612676D02*
X34915601Y-46707914D01*
X34915601Y-46707914D02*
X35010839Y-46755533D01*
X34248935Y-47565057D02*
X33487030Y-47565057D01*
X33058458Y-46469819D02*
X32963220Y-46469819D01*
X32963220Y-46469819D02*
X32867982Y-46517438D01*
X32867982Y-46517438D02*
X32820363Y-46565057D01*
X32820363Y-46565057D02*
X32772744Y-46660295D01*
X32772744Y-46660295D02*
X32725125Y-46850771D01*
X32725125Y-46850771D02*
X32725125Y-47088866D01*
X32725125Y-47088866D02*
X32772744Y-47279342D01*
X32772744Y-47279342D02*
X32820363Y-47374580D01*
X32820363Y-47374580D02*
X32867982Y-47422200D01*
X32867982Y-47422200D02*
X32963220Y-47469819D01*
X32963220Y-47469819D02*
X33058458Y-47469819D01*
X33058458Y-47469819D02*
X33153696Y-47422200D01*
X33153696Y-47422200D02*
X33201315Y-47374580D01*
X33201315Y-47374580D02*
X33248934Y-47279342D01*
X33248934Y-47279342D02*
X33296553Y-47088866D01*
X33296553Y-47088866D02*
X33296553Y-46850771D01*
X33296553Y-46850771D02*
X33248934Y-46660295D01*
X33248934Y-46660295D02*
X33201315Y-46565057D01*
X33201315Y-46565057D02*
X33153696Y-46517438D01*
X33153696Y-46517438D02*
X33058458Y-46469819D01*
X31867982Y-46469819D02*
X32058458Y-46469819D01*
X32058458Y-46469819D02*
X32153696Y-46517438D01*
X32153696Y-46517438D02*
X32201315Y-46565057D01*
X32201315Y-46565057D02*
X32296553Y-46707914D01*
X32296553Y-46707914D02*
X32344172Y-46898390D01*
X32344172Y-46898390D02*
X32344172Y-47279342D01*
X32344172Y-47279342D02*
X32296553Y-47374580D01*
X32296553Y-47374580D02*
X32248934Y-47422200D01*
X32248934Y-47422200D02*
X32153696Y-47469819D01*
X32153696Y-47469819D02*
X31963220Y-47469819D01*
X31963220Y-47469819D02*
X31867982Y-47422200D01*
X31867982Y-47422200D02*
X31820363Y-47374580D01*
X31820363Y-47374580D02*
X31772744Y-47279342D01*
X31772744Y-47279342D02*
X31772744Y-47041247D01*
X31772744Y-47041247D02*
X31820363Y-46946009D01*
X31820363Y-46946009D02*
X31867982Y-46898390D01*
X31867982Y-46898390D02*
X31963220Y-46850771D01*
X31963220Y-46850771D02*
X32153696Y-46850771D01*
X32153696Y-46850771D02*
X32248934Y-46898390D01*
X32248934Y-46898390D02*
X32296553Y-46946009D01*
X32296553Y-46946009D02*
X32344172Y-47041247D01*
X49169819Y-37791541D02*
X49169819Y-38410588D01*
X49169819Y-38410588D02*
X49550771Y-38077255D01*
X49550771Y-38077255D02*
X49550771Y-38220112D01*
X49550771Y-38220112D02*
X49598390Y-38315350D01*
X49598390Y-38315350D02*
X49646009Y-38362969D01*
X49646009Y-38362969D02*
X49741247Y-38410588D01*
X49741247Y-38410588D02*
X49979342Y-38410588D01*
X49979342Y-38410588D02*
X50074580Y-38362969D01*
X50074580Y-38362969D02*
X50122200Y-38315350D01*
X50122200Y-38315350D02*
X50169819Y-38220112D01*
X50169819Y-38220112D02*
X50169819Y-37934398D01*
X50169819Y-37934398D02*
X50122200Y-37839160D01*
X50122200Y-37839160D02*
X50074580Y-37791541D01*
X49169819Y-38696303D02*
X50169819Y-39029636D01*
X50169819Y-39029636D02*
X49169819Y-39362969D01*
X49169819Y-39601065D02*
X49169819Y-40220112D01*
X49169819Y-40220112D02*
X49550771Y-39886779D01*
X49550771Y-39886779D02*
X49550771Y-40029636D01*
X49550771Y-40029636D02*
X49598390Y-40124874D01*
X49598390Y-40124874D02*
X49646009Y-40172493D01*
X49646009Y-40172493D02*
X49741247Y-40220112D01*
X49741247Y-40220112D02*
X49979342Y-40220112D01*
X49979342Y-40220112D02*
X50074580Y-40172493D01*
X50074580Y-40172493D02*
X50122200Y-40124874D01*
X50122200Y-40124874D02*
X50169819Y-40029636D01*
X50169819Y-40029636D02*
X50169819Y-39743922D01*
X50169819Y-39743922D02*
X50122200Y-39648684D01*
X50122200Y-39648684D02*
X50074580Y-39601065D01*
X55569819Y-29186779D02*
X54569819Y-29186779D01*
X54569819Y-29186779D02*
X54569819Y-29567731D01*
X54569819Y-29567731D02*
X54617438Y-29662969D01*
X54617438Y-29662969D02*
X54665057Y-29710588D01*
X54665057Y-29710588D02*
X54760295Y-29758207D01*
X54760295Y-29758207D02*
X54903152Y-29758207D01*
X54903152Y-29758207D02*
X54998390Y-29710588D01*
X54998390Y-29710588D02*
X55046009Y-29662969D01*
X55046009Y-29662969D02*
X55093628Y-29567731D01*
X55093628Y-29567731D02*
X55093628Y-29186779D01*
X54569819Y-30377255D02*
X54569819Y-30472493D01*
X54569819Y-30472493D02*
X54617438Y-30567731D01*
X54617438Y-30567731D02*
X54665057Y-30615350D01*
X54665057Y-30615350D02*
X54760295Y-30662969D01*
X54760295Y-30662969D02*
X54950771Y-30710588D01*
X54950771Y-30710588D02*
X55188866Y-30710588D01*
X55188866Y-30710588D02*
X55379342Y-30662969D01*
X55379342Y-30662969D02*
X55474580Y-30615350D01*
X55474580Y-30615350D02*
X55522200Y-30567731D01*
X55522200Y-30567731D02*
X55569819Y-30472493D01*
X55569819Y-30472493D02*
X55569819Y-30377255D01*
X55569819Y-30377255D02*
X55522200Y-30282017D01*
X55522200Y-30282017D02*
X55474580Y-30234398D01*
X55474580Y-30234398D02*
X55379342Y-30186779D01*
X55379342Y-30186779D02*
X55188866Y-30139160D01*
X55188866Y-30139160D02*
X54950771Y-30139160D01*
X54950771Y-30139160D02*
X54760295Y-30186779D01*
X54760295Y-30186779D02*
X54665057Y-30234398D01*
X54665057Y-30234398D02*
X54617438Y-30282017D01*
X54617438Y-30282017D02*
X54569819Y-30377255D01*
X55665057Y-30901065D02*
X55665057Y-31662969D01*
X54665057Y-31853446D02*
X54617438Y-31901065D01*
X54617438Y-31901065D02*
X54569819Y-31996303D01*
X54569819Y-31996303D02*
X54569819Y-32234398D01*
X54569819Y-32234398D02*
X54617438Y-32329636D01*
X54617438Y-32329636D02*
X54665057Y-32377255D01*
X54665057Y-32377255D02*
X54760295Y-32424874D01*
X54760295Y-32424874D02*
X54855533Y-32424874D01*
X54855533Y-32424874D02*
X54998390Y-32377255D01*
X54998390Y-32377255D02*
X55569819Y-31805827D01*
X55569819Y-31805827D02*
X55569819Y-32424874D01*
X54665057Y-32805827D02*
X54617438Y-32853446D01*
X54617438Y-32853446D02*
X54569819Y-32948684D01*
X54569819Y-32948684D02*
X54569819Y-33186779D01*
X54569819Y-33186779D02*
X54617438Y-33282017D01*
X54617438Y-33282017D02*
X54665057Y-33329636D01*
X54665057Y-33329636D02*
X54760295Y-33377255D01*
X54760295Y-33377255D02*
X54855533Y-33377255D01*
X54855533Y-33377255D02*
X54998390Y-33329636D01*
X54998390Y-33329636D02*
X55569819Y-32758208D01*
X55569819Y-32758208D02*
X55569819Y-33377255D01*
X57167438Y-37810588D02*
X57119819Y-37715350D01*
X57119819Y-37715350D02*
X57119819Y-37572493D01*
X57119819Y-37572493D02*
X57167438Y-37429636D01*
X57167438Y-37429636D02*
X57262676Y-37334398D01*
X57262676Y-37334398D02*
X57357914Y-37286779D01*
X57357914Y-37286779D02*
X57548390Y-37239160D01*
X57548390Y-37239160D02*
X57691247Y-37239160D01*
X57691247Y-37239160D02*
X57881723Y-37286779D01*
X57881723Y-37286779D02*
X57976961Y-37334398D01*
X57976961Y-37334398D02*
X58072200Y-37429636D01*
X58072200Y-37429636D02*
X58119819Y-37572493D01*
X58119819Y-37572493D02*
X58119819Y-37667731D01*
X58119819Y-37667731D02*
X58072200Y-37810588D01*
X58072200Y-37810588D02*
X58024580Y-37858207D01*
X58024580Y-37858207D02*
X57691247Y-37858207D01*
X57691247Y-37858207D02*
X57691247Y-37667731D01*
X58119819Y-38286779D02*
X57119819Y-38286779D01*
X57119819Y-38286779D02*
X57119819Y-38667731D01*
X57119819Y-38667731D02*
X57167438Y-38762969D01*
X57167438Y-38762969D02*
X57215057Y-38810588D01*
X57215057Y-38810588D02*
X57310295Y-38858207D01*
X57310295Y-38858207D02*
X57453152Y-38858207D01*
X57453152Y-38858207D02*
X57548390Y-38810588D01*
X57548390Y-38810588D02*
X57596009Y-38762969D01*
X57596009Y-38762969D02*
X57643628Y-38667731D01*
X57643628Y-38667731D02*
X57643628Y-38286779D01*
X58072200Y-39239160D02*
X58119819Y-39382017D01*
X58119819Y-39382017D02*
X58119819Y-39620112D01*
X58119819Y-39620112D02*
X58072200Y-39715350D01*
X58072200Y-39715350D02*
X58024580Y-39762969D01*
X58024580Y-39762969D02*
X57929342Y-39810588D01*
X57929342Y-39810588D02*
X57834104Y-39810588D01*
X57834104Y-39810588D02*
X57738866Y-39762969D01*
X57738866Y-39762969D02*
X57691247Y-39715350D01*
X57691247Y-39715350D02*
X57643628Y-39620112D01*
X57643628Y-39620112D02*
X57596009Y-39429636D01*
X57596009Y-39429636D02*
X57548390Y-39334398D01*
X57548390Y-39334398D02*
X57500771Y-39286779D01*
X57500771Y-39286779D02*
X57405533Y-39239160D01*
X57405533Y-39239160D02*
X57310295Y-39239160D01*
X57310295Y-39239160D02*
X57215057Y-39286779D01*
X57215057Y-39286779D02*
X57167438Y-39334398D01*
X57167438Y-39334398D02*
X57119819Y-39429636D01*
X57119819Y-39429636D02*
X57119819Y-39667731D01*
X57119819Y-39667731D02*
X57167438Y-39810588D01*
X58215057Y-40001065D02*
X58215057Y-40762969D01*
X57167438Y-41524874D02*
X57119819Y-41429636D01*
X57119819Y-41429636D02*
X57119819Y-41286779D01*
X57119819Y-41286779D02*
X57167438Y-41143922D01*
X57167438Y-41143922D02*
X57262676Y-41048684D01*
X57262676Y-41048684D02*
X57357914Y-41001065D01*
X57357914Y-41001065D02*
X57548390Y-40953446D01*
X57548390Y-40953446D02*
X57691247Y-40953446D01*
X57691247Y-40953446D02*
X57881723Y-41001065D01*
X57881723Y-41001065D02*
X57976961Y-41048684D01*
X57976961Y-41048684D02*
X58072200Y-41143922D01*
X58072200Y-41143922D02*
X58119819Y-41286779D01*
X58119819Y-41286779D02*
X58119819Y-41382017D01*
X58119819Y-41382017D02*
X58072200Y-41524874D01*
X58072200Y-41524874D02*
X58024580Y-41572493D01*
X58024580Y-41572493D02*
X57691247Y-41572493D01*
X57691247Y-41572493D02*
X57691247Y-41382017D01*
X58119819Y-42001065D02*
X57119819Y-42001065D01*
X57119819Y-42001065D02*
X58119819Y-42572493D01*
X58119819Y-42572493D02*
X57119819Y-42572493D01*
X58119819Y-43048684D02*
X57119819Y-43048684D01*
X57119819Y-43048684D02*
X57119819Y-43286779D01*
X57119819Y-43286779D02*
X57167438Y-43429636D01*
X57167438Y-43429636D02*
X57262676Y-43524874D01*
X57262676Y-43524874D02*
X57357914Y-43572493D01*
X57357914Y-43572493D02*
X57548390Y-43620112D01*
X57548390Y-43620112D02*
X57691247Y-43620112D01*
X57691247Y-43620112D02*
X57881723Y-43572493D01*
X57881723Y-43572493D02*
X57976961Y-43524874D01*
X57976961Y-43524874D02*
X58072200Y-43429636D01*
X58072200Y-43429636D02*
X58119819Y-43286779D01*
X58119819Y-43286779D02*
X58119819Y-43048684D01*
D11*
%TO.C,U2*%
X-570000Y-14940000D02*
X-570000Y-32720000D01*
X-570000Y-32720000D02*
X32450000Y-32720000D01*
X32450000Y-14940000D02*
X-570000Y-14940000D01*
X32450000Y-32720000D02*
X32450000Y-14940000D01*
D12*
%TO.C,J2*%
X48850000Y-36780000D02*
X48850000Y-35450000D01*
X50180000Y-36780000D02*
X48850000Y-36780000D01*
X51450000Y-36780000D02*
X51450000Y-34120000D01*
X59130000Y-34120000D02*
X51450000Y-34120000D01*
X59130000Y-36780000D02*
X51450000Y-36780000D01*
X59130000Y-36780000D02*
X59130000Y-34120000D01*
D13*
X40480000Y-1950000D02*
X66480000Y-1950000D01*
X66480000Y-36950000D01*
X40480000Y-36950000D01*
X40480000Y-1950000D01*
X61901267Y-5950000D02*
G75*
G02*
X59058733Y-5950000I-1421267J0D01*
G01*
X59058733Y-5950000D02*
G75*
G02*
X61901267Y-5950000I1421267J0D01*
G01*
%TD*%
D14*
%TO.C,U2*%
X3240000Y-31450000D03*
X5780000Y-31450000D03*
X8320000Y-31450000D03*
X10860000Y-31450000D03*
X13400000Y-31450000D03*
X15940000Y-31450000D03*
X18480000Y-31450000D03*
X21020000Y-31450000D03*
X23560000Y-31450000D03*
X26100000Y-31450000D03*
X28640000Y-31450000D03*
X31180000Y-31450000D03*
X31180000Y-16210000D03*
X28640000Y-16210000D03*
X26100000Y-16210000D03*
X23560000Y-16210000D03*
X21020000Y-16210000D03*
X18480000Y-16210000D03*
X15940000Y-16210000D03*
X13400000Y-16210000D03*
X10860000Y-16210000D03*
X8320000Y-16210000D03*
X5780000Y-16210000D03*
X3240000Y-16210000D03*
X700000Y-16210000D03*
X700000Y-31450000D03*
%TD*%
M02*
