%TF.GenerationSoftware,KiCad,Pcbnew,8.0.6-8.0.6-0~ubuntu24.04.1*%
%TF.CreationDate,2025-11-22T22:57:42-05:00*%
%TF.ProjectId,rook,726f6f6b-2e6b-4696-9361-645f70636258,rev?*%
%TF.SameCoordinates,Original*%
%TF.FileFunction,Soldermask,Top*%
%TF.FilePolarity,Negative*%
%FSLAX46Y46*%
G04 Gerber Fmt 4.6, Leading zero omitted, Abs format (unit mm)*
G04 Created by KiCad (PCBNEW 8.0.6-8.0.6-0~ubuntu24.04.1) date 2025-11-22 22:57:42*
%MOMM*%
%LPD*%
G01*
G04 APERTURE LIST*
G04 Aperture macros list*
%AMRoundRect*
0 Rectangle with rounded corners*
0 $1 Rounding radius*
0 $2 $3 $4 $5 $6 $7 $8 $9 X,Y pos of 4 corners*
0 Add a 4 corners polygon primitive as box body*
4,1,4,$2,$3,$4,$5,$6,$7,$8,$9,$2,$3,0*
0 Add four circle primitives for the rounded corners*
1,1,$1+$1,$2,$3*
1,1,$1+$1,$4,$5*
1,1,$1+$1,$6,$7*
1,1,$1+$1,$8,$9*
0 Add four rect primitives between the rounded corners*
20,1,$1+$1,$2,$3,$4,$5,0*
20,1,$1+$1,$4,$5,$6,$7,0*
20,1,$1+$1,$6,$7,$8,$9,0*
20,1,$1+$1,$8,$9,$2,$3,0*%
G04 Aperture macros list end*
%ADD10RoundRect,0.250000X-0.450000X0.350000X-0.450000X-0.350000X0.450000X-0.350000X0.450000X0.350000X0*%
%ADD11RoundRect,0.250000X-0.350000X-0.450000X0.350000X-0.450000X0.350000X0.450000X-0.350000X0.450000X0*%
%ADD12R,1.700000X1.700000*%
%ADD13O,1.700000X1.700000*%
%ADD14RoundRect,0.250000X0.450000X-0.350000X0.450000X0.350000X-0.450000X0.350000X-0.450000X-0.350000X0*%
%ADD15RoundRect,0.150000X0.587500X0.150000X-0.587500X0.150000X-0.587500X-0.150000X0.587500X-0.150000X0*%
%ADD16R,1.500000X1.000000*%
%ADD17RoundRect,0.050800X0.600000X-0.900000X0.600000X0.900000X-0.600000X0.900000X-0.600000X-0.900000X0*%
%ADD18RoundRect,0.050800X0.250000X-0.775000X0.250000X0.775000X-0.250000X0.775000X-0.250000X-0.775000X0*%
%ADD19C,1.752600*%
%ADD20C,1.400000*%
%ADD21O,1.400000X1.400000*%
%ADD22C,3.200000*%
%ADD23C,2.000000*%
%ADD24RoundRect,0.150000X-0.875000X-0.150000X0.875000X-0.150000X0.875000X0.150000X-0.875000X0.150000X0*%
%ADD25C,2.100000*%
%ADD26C,1.750000*%
%ADD27R,0.700000X1.750000*%
%ADD28R,1.300000X1.500000*%
%ADD29R,0.800000X1.500000*%
%ADD30R,0.800000X1.400000*%
%ADD31R,1.500000X1.500000*%
%ADD32R,1.000000X1.550000*%
%ADD33R,1.450000X1.000000*%
%ADD34RoundRect,0.250000X0.350000X0.450000X-0.350000X0.450000X-0.350000X-0.450000X0.350000X-0.450000X0*%
%ADD35O,1.350000X1.350000*%
%ADD36R,1.350000X1.350000*%
%ADD37RoundRect,0.300000X0.000010X-0.500000X0.000010X0.500000X-0.000010X0.500000X-0.000010X-0.500000X0*%
%ADD38R,2.600000X2.600000*%
%ADD39C,2.600000*%
%ADD40O,1.200000X1.750000*%
%ADD41RoundRect,0.250000X0.350000X0.625000X-0.350000X0.625000X-0.350000X-0.625000X0.350000X-0.625000X0*%
G04 APERTURE END LIST*
D10*
%TO.C,R16*%
X48050000Y-22850000D03*
X48050000Y-24850000D03*
%TD*%
D11*
%TO.C,R14*%
X45800000Y-8950000D03*
X43800000Y-8950000D03*
%TD*%
%TO.C,R13*%
X45800000Y-11350000D03*
X43800000Y-11350000D03*
%TD*%
%TO.C,R12*%
X45950000Y-13850000D03*
X43950000Y-13850000D03*
%TD*%
D12*
%TO.C,J9*%
X6400000Y-42100000D03*
D13*
X8940000Y-42100000D03*
X11480000Y-42100000D03*
X14020000Y-42100000D03*
X16560000Y-42100000D03*
X19100000Y-42100000D03*
X21640000Y-42100000D03*
X24180000Y-42100000D03*
X26720000Y-42100000D03*
X29260000Y-42100000D03*
%TD*%
D14*
%TO.C,R18*%
X63600000Y-22850000D03*
X63600000Y-24850000D03*
%TD*%
%TO.C,R15*%
X51450000Y-24900000D03*
X51450000Y-22900000D03*
%TD*%
D15*
%TO.C,Q2*%
X44550000Y-24550000D03*
X44550000Y-22650000D03*
X42675000Y-23600000D03*
%TD*%
D16*
%TO.C,JP3*%
X39300000Y-22950000D03*
X39300000Y-24250000D03*
%TD*%
%TO.C,JP2*%
X55450000Y-23250000D03*
X55450000Y-24550000D03*
%TD*%
%TO.C,JP1*%
X59800000Y-23250000D03*
X59800000Y-24550000D03*
%TD*%
D17*
%TO.C,J6*%
X55250000Y-44150000D03*
X49650000Y-44150000D03*
D18*
X53950000Y-40250000D03*
X52950000Y-40250000D03*
X51950000Y-40250000D03*
X50950000Y-40250000D03*
%TD*%
D19*
%TO.C,U2*%
X3240000Y-31450000D03*
X5780000Y-31450000D03*
X8320000Y-31450000D03*
X10860000Y-31450000D03*
X13400000Y-31450000D03*
X15940000Y-31450000D03*
X18480000Y-31450000D03*
X21020000Y-31450000D03*
X23560000Y-31450000D03*
X26100000Y-31450000D03*
X28640000Y-31450000D03*
X31180000Y-31450000D03*
X31180000Y-16210000D03*
X28640000Y-16210000D03*
X26100000Y-16210000D03*
X23560000Y-16210000D03*
X21020000Y-16210000D03*
X18480000Y-16210000D03*
X15940000Y-16210000D03*
X13400000Y-16210000D03*
X10860000Y-16210000D03*
X8320000Y-16210000D03*
X5780000Y-16210000D03*
X3240000Y-16210000D03*
X700000Y-16210000D03*
X700000Y-31450000D03*
%TD*%
D20*
%TO.C,R10*%
X19150000Y-26380000D03*
D21*
X19150000Y-21300000D03*
%TD*%
D10*
%TO.C,R5*%
X7150000Y-22950000D03*
X7150000Y-24950000D03*
%TD*%
D14*
%TO.C,R9*%
X19000000Y-24880000D03*
X19000000Y-22880000D03*
%TD*%
D22*
%TO.C,H4*%
X0Y-44000000D03*
%TD*%
D23*
%TO.C,SW4*%
X4300000Y-5600000D03*
X4300000Y-12100000D03*
X-200000Y-5600000D03*
X-200000Y-12100000D03*
%TD*%
D14*
%TO.C,R6*%
X13300000Y-24940000D03*
X13300000Y-22940000D03*
%TD*%
D24*
%TO.C,U3*%
X60000000Y-7510000D03*
X60000000Y-8780000D03*
X60000000Y-10050000D03*
X60000000Y-11320000D03*
X60000000Y-12590000D03*
X60000000Y-13860000D03*
X60000000Y-15130000D03*
X60000000Y-16400000D03*
X50700000Y-16400000D03*
X50700000Y-15130000D03*
X50700000Y-13860000D03*
X50700000Y-12590000D03*
X50700000Y-11320000D03*
X50700000Y-10050000D03*
X50700000Y-8780000D03*
X50700000Y-7510000D03*
%TD*%
D25*
%TO.C,SW1*%
X69660000Y-5200000D03*
X69660000Y-12210000D03*
D26*
X72150000Y-6450000D03*
X72150000Y-10950000D03*
%TD*%
D20*
%TO.C,R1*%
X13300000Y-26500000D03*
D21*
X13300000Y-21420000D03*
%TD*%
D27*
%TO.C,J10*%
X9700000Y-1075000D03*
X10800000Y-1075000D03*
X11900000Y-1075000D03*
X13000000Y-1075000D03*
X14100000Y-1075000D03*
X15200000Y-1075000D03*
X16300000Y-1075000D03*
X17400000Y-1075000D03*
D28*
X18600000Y-1200000D03*
D29*
X18850000Y-8800000D03*
D30*
X6900000Y-9450000D03*
D31*
X7250000Y-1200000D03*
D32*
X7300000Y-11875000D03*
D33*
X18525000Y-10300000D03*
%TD*%
D25*
%TO.C,SW2*%
X69560000Y-16050000D03*
X69560000Y-23060000D03*
D26*
X72050000Y-17300000D03*
X72050000Y-21800000D03*
%TD*%
D22*
%TO.C,H1*%
X0Y0D03*
%TD*%
D25*
%TO.C,SW3*%
X69510000Y-26900000D03*
X69510000Y-33910000D03*
D26*
X72000000Y-28150000D03*
X72000000Y-32650000D03*
%TD*%
D34*
%TO.C,R8*%
X60300000Y600000D03*
X62300000Y600000D03*
%TD*%
D12*
%TO.C,J3*%
X54450000Y440000D03*
D13*
X51910000Y440000D03*
X49370000Y440000D03*
X46830000Y440000D03*
%TD*%
D20*
%TO.C,R3*%
X42620000Y580000D03*
D21*
X37540000Y580000D03*
%TD*%
D34*
%TO.C,R7*%
X39080000Y550000D03*
X41080000Y550000D03*
%TD*%
D20*
%TO.C,R2*%
X7150000Y-21500000D03*
D21*
X7150000Y-26580000D03*
%TD*%
D35*
%TO.C,U4*%
X59650000Y-42050000D03*
X61650000Y-42050000D03*
X63650000Y-42050000D03*
D36*
X65650000Y-42050000D03*
%TD*%
D22*
%TO.C,H3*%
X72000000Y0D03*
%TD*%
D12*
%TO.C,J8*%
X71400000Y-38920000D03*
D13*
X71400000Y-41460000D03*
X71400000Y-44000000D03*
%TD*%
D37*
%TO.C,U1*%
X23030000Y-12350000D03*
X24300000Y-12350000D03*
X25570000Y-12350000D03*
X26840000Y-12350000D03*
X28110000Y-12350000D03*
X29380000Y-12350000D03*
X30650000Y-12350000D03*
X31920000Y-12350000D03*
X28110000Y-1950000D03*
X26840000Y-1950000D03*
X25570000Y-1950000D03*
X24300000Y-1950000D03*
%TD*%
D38*
%TO.C,J7*%
X34550000Y-40150000D03*
D39*
X39630000Y-40150000D03*
X44710000Y-40150000D03*
%TD*%
D12*
%TO.C,J4*%
X28250000Y1040000D03*
%TD*%
D21*
%TO.C,R4*%
X58760000Y570000D03*
D20*
X63840000Y570000D03*
%TD*%
D12*
%TO.C,J2*%
X50180000Y-35450000D03*
D13*
X52720000Y-35450000D03*
X55260000Y-35450000D03*
X57800000Y-35450000D03*
%TD*%
D40*
%TO.C,J1*%
X2200000Y-37400000D03*
D41*
X4200000Y-37400000D03*
%TD*%
M02*
