M48
; DRILL file {KiCad 8.0.6-8.0.6-0~ubuntu24.04.1} date 2026-02-19T00:00:51-0500
; FORMAT={-:-/ absolute / inch / decimal}
; #@! TF.CreationDate,2026-02-19T00:00:51-05:00
; #@! TF.GenerationSoftware,Kicad,Pcbnew,8.0.6-8.0.6-0~ubuntu24.04.1
; #@! TF.FileFunction,MixedPlating,1,2
FMAT,2
INCH
; #@! TA.AperFunction,Plated,PTH,ViaDrill
T1C0.0118
; #@! TA.AperFunction,Plated,PTH,ComponentDrill
T2C0.0295
; #@! TA.AperFunction,Plated,PTH,ComponentDrill
T3C0.0315
; #@! TA.AperFunction,Plated,PTH,ComponentDrill
T4C0.0354
; #@! TA.AperFunction,Plated,PTH,ComponentDrill
T5C0.0390
; #@! TA.AperFunction,Plated,PTH,ComponentDrill
T6C0.0394
; #@! TA.AperFunction,Plated,PTH,ComponentDrill
T7C0.0430
; #@! TA.AperFunction,Plated,PTH,ComponentDrill
T8C0.0472
; #@! TA.AperFunction,Plated,PTH,ComponentDrill
T9C0.0512
; #@! TA.AperFunction,NonPlated,NPTH,ComponentDrill
T10C0.1260
%
G90
G05
T1
X-0.0886Y-1.2598
X-0.0787Y-0.9547
X-0.0098Y-0.9547
X-0.0098Y-1.4469
X0.0Y-0.3248
X0.128Y-1.1024
X0.187Y-0.7343
X0.187Y-1.063
X0.2205Y-0.3465
X0.2657Y-0.4134
X0.2854Y-1.063
X0.2854Y-1.4469
X0.3051Y-0.6496
X0.3248Y-0.7874
X0.3248Y-0.9055
X0.3445Y-0.0984
X0.3524Y-0.4934
X0.374Y-0.1772
X0.3839Y-0.8169
X0.3839Y-1.4469
X0.437Y-1.5354
X0.4567Y-1.2677
X0.4724Y0.0886
X0.4724Y0.0295
X0.502Y-1.0138
X0.5413Y-0.0886
X0.5413Y-0.1673
X0.5906Y0.0295
X0.5906Y-0.4823
X0.5906Y-1.2598
X0.6004Y0.0591
X0.6299Y-0.0787
X0.6398Y-0.1772
X0.6398Y-0.6594
X0.6791Y-0.0689
X0.689Y-0.1378
X0.689Y-0.4469
X0.6929Y-1.2992
X0.7382Y0.0394
X0.748Y-0.7283
X0.7717Y-1.4961
X0.7795Y-1.0551
X0.7874Y-0.0886
X0.7874Y-0.1772
X0.7874Y-0.5118
X0.7953Y-1.3819
X0.8071Y-0.8858
X0.8268Y-0.9882
X0.8366Y-0.1571
X0.8465Y-0.3346
X0.8661Y-0.3642
X0.876Y-0.4724
X0.9055Y-0.2461
X0.9154Y-1.4469
X0.935Y-1.0433
X0.9449Y-0.3091
X0.9449Y-0.6791
X0.9643Y-0.6305
X0.9941Y-0.4724
X1.0039Y-1.3287
X1.0039Y-1.378
X1.0138Y-0.4331
X1.0236Y-0.3346
X1.0335Y-0.1772
X1.0335Y-1.063
X1.0354Y-0.0492
X1.0374Y-0.3051
X1.0433Y-0.4724
X1.0472Y-0.8366
X1.0531Y0.0591
X1.063Y-0.6201
X1.0728Y-0.502
X1.1024Y-0.2067
X1.1122Y-1.3484
X1.122Y-0.2559
X1.1516Y-0.6299
X1.1516Y-1.063
X1.1516Y-1.5354
X1.1614Y-0.7953
X1.1713Y0.0886
X1.1811Y-0.5217
X1.2008Y-0.1083
X1.2697Y-0.561
X1.2992Y0.0098
X1.2992Y-0.1378
X1.3189Y0.0591
X1.3484Y-1.2402
X1.437Y-1.3484
X1.437Y-1.5354
X1.4567Y-0.3406
X1.4705Y-0.9941
X1.4862Y-1.0925
X1.5157Y0.0098
X1.5157Y-0.0886
X1.5551Y-0.6693
X1.565Y-0.1476
X1.565Y-1.3484
X1.565Y-1.6339
X1.6142Y-0.5118
X1.624Y-0.4232
X1.6732Y-1.2106
X1.6831Y-0.6693
X1.6831Y-0.8366
X1.6831Y-1.1614
X1.7165Y-0.0787
X1.7402Y-0.4724
X1.752Y-0.7185
X1.752Y-0.7776
X1.7913Y-0.1969
X1.7913Y-1.4075
X1.8209Y-0.6693
X1.8209Y-0.8366
X1.874Y-0.5276
X1.8799Y-0.4232
X1.8898Y-1.1713
X1.8996Y-0.2165
X1.8996Y-0.7283
X1.8996Y-1.0925
X1.9291Y-0.8858
X1.939Y-1.2697
X1.939Y-1.3287
X1.9488Y-0.6693
X1.9587Y-0.8366
X1.9783Y-0.2362
X1.998Y0.0591
X2.0079Y-0.4232
X2.0079Y-0.8366
X2.0709Y-0.4567
X2.0768Y-0.1673
X2.0768Y-0.7589
X2.0768Y-0.9154
X2.0866Y-1.624
X2.0965Y-1.3091
X2.1063Y-0.748
X2.1161Y-0.128
X2.1457Y-0.1969
X2.1457Y-1.1909
X2.2047Y-0.6594
X2.2047Y-1.4173
X2.2343Y-0.2559
X2.2343Y-0.4232
X2.2598Y-0.7953
X2.2933Y-1.1319
X2.3031Y-0.748
X2.313Y-0.187
X2.3327Y-1.0925
X2.3425Y-0.6693
X2.3819Y-0.7571
X2.3819Y-0.9055
X2.3917Y-1.2638
X2.4114Y-0.7906
X2.4311Y-1.3484
X2.4409Y-0.0295
X2.4409Y-1.3091
X2.4508Y-1.2303
X2.4606Y-0.8366
X2.4665Y-0.1378
X2.4705Y-0.6594
X2.5Y-0.1378
X2.5Y-0.2559
X2.5433Y-0.1969
X2.5492Y-0.748
X2.5512Y-0.4567
X2.5787Y-0.1378
X2.5886Y-1.122
X2.5984Y-0.2559
X2.6083Y-0.2165
X2.6181Y-0.1378
X2.6575Y-1.25
T2
X0.9213Y-1.5256
X1.0Y-1.5256
T3
X0.0933Y-0.7365
X0.0984Y-0.9528
X0.4933Y-0.7365
X0.4984Y-0.9528
X0.6472Y-0.9429
X0.6496Y-0.7343
X1.0472Y-0.9429
X1.0496Y-0.7343
X1.2175Y-1.4636
X1.2963Y-1.4636
X1.375Y-1.4636
X1.4537Y-1.4636
X1.5492Y-0.5764
X1.5492Y-0.9764
X1.6797Y-0.5764
X1.6797Y-0.9764
X1.8189Y-0.5726
X1.8189Y-0.9726
X1.9494Y-0.5726
X1.9494Y-0.9726
X2.0799Y-0.5726
X2.0799Y-0.9726
X2.2103Y-0.5726
X2.2103Y-0.9726
X2.3406Y-0.5756
X2.3406Y-0.9756
X2.4685Y-0.576
X2.4685Y-0.976
T4
X0.3967Y-1.5945
X0.4754Y-1.5945
X0.5541Y-1.5945
X2.4035Y-1.5748
X2.4823Y-1.5748
X2.561Y-1.5748
T5
X0.0Y-0.2441
X0.0Y-0.4213
X2.8907Y-0.2623
X2.8907Y-0.4395
X2.8907Y-0.6781
X2.8907Y-0.8553
X2.8907Y-1.094
X2.8907Y-1.2712
T6
X0.8913Y-0.0657
X1.3543Y-0.6055
X1.3543Y-0.7055
X1.3543Y-0.8055
X1.3543Y-0.9055
X1.6165Y-0.0157
X1.7165Y-0.0157
X1.7748Y-0.2963
X1.8165Y-0.0157
X1.8748Y-0.2963
X1.9165Y-0.0157
X1.9748Y-0.2963
X2.0165Y-0.0157
X2.0748Y-0.2963
X2.1165Y-0.0157
X2.2165Y-0.0157
X2.3165Y-0.0157
X2.5906Y-0.6119
X2.5906Y-0.7119
X2.5906Y-0.8119
X2.5906Y-0.9119
T7
X-0.0142Y-0.5807
X-0.0142Y-1.1807
X0.0858Y-0.5807
X0.0858Y-1.1807
X0.1858Y-0.5807
X0.1858Y-1.1807
X0.2858Y-0.5807
X0.2858Y-1.1807
X0.3858Y-0.5807
X0.3858Y-1.1807
X0.4858Y-0.5807
X0.4858Y-1.1807
X0.5858Y-0.5807
X0.5858Y-1.1807
X0.6858Y-0.5807
X0.6858Y-1.1807
X0.7858Y-0.5807
X0.7858Y-1.1807
X0.8858Y-0.5807
X0.8858Y-1.1807
X0.9858Y-0.5807
X0.9858Y-1.1807
X1.0858Y-0.5807
X1.0858Y-1.1807
X1.1858Y-0.5807
X1.1858Y-1.1807
T8
X0.314Y-1.5945
X0.6368Y-1.5945
X2.3209Y-1.5748
X2.6437Y-1.5748
T9
X0.098Y-0.1945
X0.098Y-0.4705
X1.6919Y-1.4242
X1.8919Y-1.4242
X2.0919Y-1.4242
X2.7927Y-0.2131
X2.7927Y-0.4891
X2.7927Y-0.6289
X2.7927Y-0.9049
X2.7927Y-1.0448
X2.7927Y-1.3208
T10
X0.0Y0.0
X0.0Y-1.5748
X2.874Y0.0
X2.874Y-1.5748
M30
