%TF.GenerationSoftware,KiCad,Pcbnew,8.0.6-8.0.6-0~ubuntu24.04.1*%
%TF.CreationDate,2026-02-19T00:00:46-05:00*%
%TF.ProjectId,rook,726f6f6b-2e6b-4696-9361-645f70636258,rev?*%
%TF.SameCoordinates,Original*%
%TF.FileFunction,Soldermask,Top*%
%TF.FilePolarity,Negative*%
%FSLAX46Y46*%
G04 Gerber Fmt 4.6, Leading zero omitted, Abs format (unit mm)*
G04 Created by KiCad (PCBNEW 8.0.6-8.0.6-0~ubuntu24.04.1) date 2026-02-19 00:00:46*
%MOMM*%
%LPD*%
G01*
G04 APERTURE LIST*
G04 Aperture macros list*
%AMRoundRect*
0 Rectangle with rounded corners*
0 $1 Rounding radius*
0 $2 $3 $4 $5 $6 $7 $8 $9 X,Y pos of 4 corners*
0 Add a 4 corners polygon primitive as box body*
4,1,4,$2,$3,$4,$5,$6,$7,$8,$9,$2,$3,0*
0 Add four circle primitives for the rounded corners*
1,1,$1+$1,$2,$3*
1,1,$1+$1,$4,$5*
1,1,$1+$1,$6,$7*
1,1,$1+$1,$8,$9*
0 Add four rect primitives between the rounded corners*
20,1,$1+$1,$2,$3,$4,$5,0*
20,1,$1+$1,$4,$5,$6,$7,0*
20,1,$1+$1,$6,$7,$8,$9,0*
20,1,$1+$1,$8,$9,$2,$3,0*%
G04 Aperture macros list end*
%ADD10RoundRect,0.050800X-0.250000X0.775000X-0.250000X-0.775000X0.250000X-0.775000X0.250000X0.775000X0*%
%ADD11RoundRect,0.050800X-0.600000X0.900000X-0.600000X-0.900000X0.600000X-0.900000X0.600000X0.900000X0*%
%ADD12O,1.200000X1.750000*%
%ADD13RoundRect,0.250000X0.350000X0.625000X-0.350000X0.625000X-0.350000X-0.625000X0.350000X-0.625000X0*%
%ADD14R,1.700000X1.700000*%
%ADD15O,1.700000X1.700000*%
%ADD16R,1.000000X1.500000*%
%ADD17C,1.752600*%
%ADD18O,1.600000X1.600000*%
%ADD19C,1.600000*%
%ADD20C,2.100000*%
%ADD21C,1.750000*%
%ADD22RoundRect,0.250000X-0.350000X-0.450000X0.350000X-0.450000X0.350000X0.450000X-0.350000X0.450000X0*%
%ADD23RoundRect,0.250000X0.450000X-0.350000X0.450000X0.350000X-0.450000X0.350000X-0.450000X-0.350000X0*%
%ADD24C,3.200000*%
%ADD25RoundRect,0.250000X-0.450000X0.350000X-0.450000X-0.350000X0.450000X-0.350000X0.450000X0.350000X0*%
%ADD26RoundRect,0.250000X0.350000X0.450000X-0.350000X0.450000X-0.350000X-0.450000X0.350000X-0.450000X0*%
%ADD27RoundRect,0.150000X0.150000X-0.587500X0.150000X0.587500X-0.150000X0.587500X-0.150000X-0.587500X0*%
%ADD28O,1.800000X3.500000*%
%ADD29R,1.100000X2.500000*%
%ADD30O,1.100000X2.500000*%
%ADD31R,0.700000X1.750000*%
%ADD32R,1.300000X1.500000*%
%ADD33R,0.800000X1.500000*%
%ADD34R,0.800000X1.400000*%
%ADD35R,1.500000X1.500000*%
%ADD36R,1.000000X1.550000*%
%ADD37R,1.450000X1.000000*%
%ADD38O,1.350000X1.350000*%
%ADD39R,1.350000X1.350000*%
%ADD40RoundRect,0.300000X0.750000X0.000010X-0.750000X0.000010X-0.750000X-0.000010X0.750000X-0.000010X0*%
%ADD41R,2.600000X2.600000*%
%ADD42C,2.600000*%
G04 APERTURE END LIST*
D10*
%TO.C,J6*%
X66500000Y-2114000D03*
X65500000Y-2114000D03*
X64500000Y-2114000D03*
X63500000Y-2114000D03*
D11*
X67800000Y1786000D03*
X62200000Y1786000D03*
%TD*%
D12*
%TO.C,J1*%
X23400000Y-38750000D03*
D13*
X25400000Y-38750000D03*
%TD*%
D14*
%TO.C,U5*%
X58840000Y-400000D03*
D15*
X56300000Y-400000D03*
X53760000Y-400000D03*
X51220000Y-400000D03*
X48680000Y-400000D03*
X46140000Y-400000D03*
X43600000Y-400000D03*
X41060000Y-400000D03*
%TD*%
D16*
%TO.C,JP2*%
X65500000Y-33000000D03*
X64200000Y-33000000D03*
%TD*%
D17*
%TO.C,U2*%
X-360000Y-29990000D03*
X-360000Y-14750000D03*
X2180000Y-14750000D03*
X4720000Y-14750000D03*
X7260000Y-14750000D03*
X9800000Y-14750000D03*
X12340000Y-14750000D03*
X14880000Y-14750000D03*
X17420000Y-14750000D03*
X19960000Y-14750000D03*
X22500000Y-14750000D03*
X25040000Y-14750000D03*
X27580000Y-14750000D03*
X30120000Y-14750000D03*
X30120000Y-29990000D03*
X27580000Y-29990000D03*
X25040000Y-29990000D03*
X22500000Y-29990000D03*
X19960000Y-29990000D03*
X17420000Y-29990000D03*
X14880000Y-29990000D03*
X12340000Y-29990000D03*
X9800000Y-29990000D03*
X7260000Y-29990000D03*
X4720000Y-29990000D03*
X2180000Y-29990000D03*
%TD*%
D18*
%TO.C,R10*%
X46200000Y-14545000D03*
D19*
X46200000Y-24705000D03*
%TD*%
D20*
%TO.C,B3*%
X70935000Y-26537500D03*
X70935000Y-33547500D03*
D21*
X73425000Y-27787500D03*
X73425000Y-32287500D03*
%TD*%
D22*
%TO.C,R5*%
X6130000Y-24128570D03*
X8130000Y-24128570D03*
%TD*%
D20*
%TO.C,B1*%
X70935000Y-5412500D03*
X70935000Y-12422500D03*
D21*
X73425000Y-6662500D03*
X73425000Y-11162500D03*
%TD*%
D16*
%TO.C,JP1*%
X60750000Y-33000000D03*
X59450000Y-33000000D03*
%TD*%
D23*
%TO.C,R9*%
X46242860Y-20175000D03*
X46242860Y-18175000D03*
%TD*%
D24*
%TO.C,H4*%
X0Y-40000000D03*
%TD*%
D18*
%TO.C,R13*%
X56142860Y-24705000D03*
D19*
X56142860Y-14545000D03*
%TD*%
D25*
%TO.C,R15*%
X49542860Y-18175000D03*
X49542860Y-20175000D03*
%TD*%
D22*
%TO.C,R20*%
X19900000Y-23950000D03*
X21900000Y-23950000D03*
%TD*%
D26*
%TO.C,R6*%
X8000000Y-18650000D03*
X6000000Y-18650000D03*
%TD*%
D27*
%TO.C,Q2*%
X63950000Y-10200000D03*
X65850000Y-10200000D03*
X64900000Y-8325000D03*
%TD*%
D20*
%TO.C,B2*%
X70935000Y-15975000D03*
X70935000Y-22985000D03*
D21*
X73425000Y-17225000D03*
X73425000Y-21725000D03*
%TD*%
D23*
%TO.C,R16*%
X56142860Y-20175000D03*
X56142860Y-18175000D03*
%TD*%
D18*
%TO.C,R21*%
X62700000Y-24790000D03*
D19*
X62700000Y-14630000D03*
%TD*%
D28*
%TO.C,TFT_BL1*%
X58950000Y-40000000D03*
X67150000Y-40000000D03*
D29*
X65050000Y-40000000D03*
D30*
X63050000Y-40000000D03*
X61050000Y-40000000D03*
%TD*%
D14*
%TO.C,J11*%
X34400000Y-15380000D03*
D15*
X34400000Y-17920000D03*
X34400000Y-20460000D03*
X34400000Y-23000000D03*
%TD*%
D19*
%TO.C,R1*%
X12530000Y-18707145D03*
D18*
X2370000Y-18707145D03*
%TD*%
D31*
%TO.C,J10*%
X10600000Y-525000D03*
X11700000Y-525000D03*
X12800000Y-525000D03*
X13900000Y-525000D03*
X15000000Y-525000D03*
X16100000Y-525000D03*
X17200000Y-525000D03*
X18300000Y-525000D03*
D32*
X19500000Y-650000D03*
D33*
X19750000Y-8250000D03*
D34*
X7800000Y-8900000D03*
D35*
X8150000Y-650000D03*
D36*
X8200000Y-11325000D03*
D37*
X19425000Y-9750000D03*
%TD*%
D24*
%TO.C,H1*%
X0Y0D03*
%TD*%
D23*
%TO.C,R18*%
X52842860Y-20175000D03*
X52842860Y-18175000D03*
%TD*%
D18*
%TO.C,R23*%
X59450000Y-24780000D03*
D19*
X59450000Y-14620000D03*
%TD*%
D25*
%TO.C,R8*%
X42750000Y-18200000D03*
X42750000Y-20200000D03*
%TD*%
D14*
%TO.C,J3*%
X52700000Y-7525000D03*
D15*
X50160000Y-7525000D03*
X47620000Y-7525000D03*
X45080000Y-7525000D03*
%TD*%
D18*
%TO.C,R3*%
X39350000Y-24800000D03*
D19*
X39350000Y-14640000D03*
%TD*%
D25*
%TO.C,R7*%
X39350000Y-18400000D03*
X39350000Y-20400000D03*
%TD*%
D19*
%TO.C,R2*%
X2500000Y-24200000D03*
D18*
X12660000Y-24200000D03*
%TD*%
D38*
%TO.C,U4*%
X30925000Y-37175000D03*
X32925000Y-37175000D03*
X34925000Y-37175000D03*
D39*
X36925000Y-37175000D03*
%TD*%
D24*
%TO.C,H2*%
X73000000Y0D03*
%TD*%
D25*
%TO.C,R22*%
X62550000Y-18090000D03*
X62550000Y-20090000D03*
%TD*%
D18*
%TO.C,R11*%
X52828570Y-24705000D03*
D19*
X52828570Y-14545000D03*
%TD*%
D25*
%TO.C,R24*%
X59400000Y-18080000D03*
X59400000Y-20080000D03*
%TD*%
D24*
%TO.C,H3*%
X73000000Y-40000000D03*
%TD*%
D19*
%TO.C,R19*%
X16440000Y-23950000D03*
D18*
X26600000Y-23950000D03*
%TD*%
D30*
%TO.C,J8*%
X10075000Y-40500000D03*
X12075000Y-40500000D03*
D29*
X14075000Y-40500000D03*
D28*
X16175000Y-40500000D03*
X7975000Y-40500000D03*
%TD*%
D40*
%TO.C,U1*%
X35450000Y-8650000D03*
X35450000Y-7380000D03*
X35450000Y-6110000D03*
X35450000Y-4840000D03*
X35450000Y-3570000D03*
X35450000Y-2300000D03*
X35450000Y-1030000D03*
X35450000Y240000D03*
X24550000Y-3570000D03*
X24550000Y-4840000D03*
X24550000Y-6110000D03*
X24550000Y-7380000D03*
%TD*%
D41*
%TO.C,J7*%
X42975000Y-36175000D03*
D42*
X48055000Y-36175000D03*
X53135000Y-36175000D03*
%TD*%
D20*
%TO.C,RESET1*%
X2490000Y-11950000D03*
X2490000Y-4940000D03*
D21*
X0Y-10700000D03*
X0Y-6200000D03*
%TD*%
D14*
%TO.C,J4*%
X22640000Y-1670000D03*
%TD*%
D18*
%TO.C,R12*%
X49514285Y-24705000D03*
D19*
X49514285Y-14545000D03*
%TD*%
D18*
%TO.C,R14*%
X26660000Y-18650000D03*
D19*
X16500000Y-18650000D03*
%TD*%
D22*
%TO.C,R17*%
X19960000Y-18700000D03*
X21960000Y-18700000D03*
%TD*%
D18*
%TO.C,R4*%
X42664285Y-24800000D03*
D19*
X42664285Y-14640000D03*
%TD*%
D16*
%TO.C,JP3*%
X58450000Y-9000000D03*
X59750000Y-9000000D03*
%TD*%
D14*
%TO.C,J2*%
X65800000Y-23162500D03*
D15*
X65800000Y-20622500D03*
X65800000Y-18082500D03*
X65800000Y-15542500D03*
%TD*%
M02*
