%TF.GenerationSoftware,KiCad,Pcbnew,8.0.6-8.0.6-0~ubuntu24.04.1*%
%TF.CreationDate,2025-11-22T22:57:42-05:00*%
%TF.ProjectId,rook,726f6f6b-2e6b-4696-9361-645f70636258,rev?*%
%TF.SameCoordinates,Original*%
%TF.FileFunction,Soldermask,Bot*%
%TF.FilePolarity,Negative*%
%FSLAX46Y46*%
G04 Gerber Fmt 4.6, Leading zero omitted, Abs format (unit mm)*
G04 Created by KiCad (PCBNEW 8.0.6-8.0.6-0~ubuntu24.04.1) date 2025-11-22 22:57:42*
%MOMM*%
%LPD*%
G01*
G04 APERTURE LIST*
G04 Aperture macros list*
%AMRoundRect*
0 Rectangle with rounded corners*
0 $1 Rounding radius*
0 $2 $3 $4 $5 $6 $7 $8 $9 X,Y pos of 4 corners*
0 Add a 4 corners polygon primitive as box body*
4,1,4,$2,$3,$4,$5,$6,$7,$8,$9,$2,$3,0*
0 Add four circle primitives for the rounded corners*
1,1,$1+$1,$2,$3*
1,1,$1+$1,$4,$5*
1,1,$1+$1,$6,$7*
1,1,$1+$1,$8,$9*
0 Add four rect primitives between the rounded corners*
20,1,$1+$1,$2,$3,$4,$5,0*
20,1,$1+$1,$4,$5,$6,$7,0*
20,1,$1+$1,$6,$7,$8,$9,0*
20,1,$1+$1,$8,$9,$2,$3,0*%
G04 Aperture macros list end*
%ADD10R,1.700000X1.700000*%
%ADD11O,1.700000X1.700000*%
%ADD12C,1.752600*%
%ADD13C,1.400000*%
%ADD14O,1.400000X1.400000*%
%ADD15C,3.200000*%
%ADD16C,2.000000*%
%ADD17C,2.100000*%
%ADD18C,1.750000*%
%ADD19O,1.350000X1.350000*%
%ADD20R,1.350000X1.350000*%
%ADD21R,2.600000X2.600000*%
%ADD22C,2.600000*%
%ADD23O,1.200000X1.750000*%
%ADD24RoundRect,0.250000X0.350000X0.625000X-0.350000X0.625000X-0.350000X-0.625000X0.350000X-0.625000X0*%
G04 APERTURE END LIST*
D10*
%TO.C,J9*%
X6400000Y-42100000D03*
D11*
X8940000Y-42100000D03*
X11480000Y-42100000D03*
X14020000Y-42100000D03*
X16560000Y-42100000D03*
X19100000Y-42100000D03*
X21640000Y-42100000D03*
X24180000Y-42100000D03*
X26720000Y-42100000D03*
X29260000Y-42100000D03*
%TD*%
D12*
%TO.C,U2*%
X3240000Y-31450000D03*
X5780000Y-31450000D03*
X8320000Y-31450000D03*
X10860000Y-31450000D03*
X13400000Y-31450000D03*
X15940000Y-31450000D03*
X18480000Y-31450000D03*
X21020000Y-31450000D03*
X23560000Y-31450000D03*
X26100000Y-31450000D03*
X28640000Y-31450000D03*
X31180000Y-31450000D03*
X31180000Y-16210000D03*
X28640000Y-16210000D03*
X26100000Y-16210000D03*
X23560000Y-16210000D03*
X21020000Y-16210000D03*
X18480000Y-16210000D03*
X15940000Y-16210000D03*
X13400000Y-16210000D03*
X10860000Y-16210000D03*
X8320000Y-16210000D03*
X5780000Y-16210000D03*
X3240000Y-16210000D03*
X700000Y-16210000D03*
X700000Y-31450000D03*
%TD*%
D13*
%TO.C,R10*%
X19150000Y-26380000D03*
D14*
X19150000Y-21300000D03*
%TD*%
D15*
%TO.C,H4*%
X0Y-44000000D03*
%TD*%
D16*
%TO.C,SW4*%
X4300000Y-5600000D03*
X4300000Y-12100000D03*
X-200000Y-5600000D03*
X-200000Y-12100000D03*
%TD*%
D17*
%TO.C,SW1*%
X69660000Y-5200000D03*
X69660000Y-12210000D03*
D18*
X72150000Y-6450000D03*
X72150000Y-10950000D03*
%TD*%
D13*
%TO.C,R1*%
X13300000Y-26500000D03*
D14*
X13300000Y-21420000D03*
%TD*%
D17*
%TO.C,SW2*%
X69560000Y-16050000D03*
X69560000Y-23060000D03*
D18*
X72050000Y-17300000D03*
X72050000Y-21800000D03*
%TD*%
D15*
%TO.C,H1*%
X0Y0D03*
%TD*%
D17*
%TO.C,SW3*%
X69510000Y-26900000D03*
X69510000Y-33910000D03*
D18*
X72000000Y-28150000D03*
X72000000Y-32650000D03*
%TD*%
D10*
%TO.C,J3*%
X54450000Y440000D03*
D11*
X51910000Y440000D03*
X49370000Y440000D03*
X46830000Y440000D03*
%TD*%
D13*
%TO.C,R3*%
X42620000Y580000D03*
D14*
X37540000Y580000D03*
%TD*%
D13*
%TO.C,R2*%
X7150000Y-21500000D03*
D14*
X7150000Y-26580000D03*
%TD*%
D19*
%TO.C,U4*%
X59650000Y-42050000D03*
X61650000Y-42050000D03*
X63650000Y-42050000D03*
D20*
X65650000Y-42050000D03*
%TD*%
D15*
%TO.C,H3*%
X72000000Y0D03*
%TD*%
D10*
%TO.C,J8*%
X71400000Y-38920000D03*
D11*
X71400000Y-41460000D03*
X71400000Y-44000000D03*
%TD*%
D21*
%TO.C,J7*%
X34550000Y-40150000D03*
D22*
X39630000Y-40150000D03*
X44710000Y-40150000D03*
%TD*%
D10*
%TO.C,J4*%
X28250000Y1040000D03*
%TD*%
D14*
%TO.C,R4*%
X58760000Y570000D03*
D13*
X63840000Y570000D03*
%TD*%
D10*
%TO.C,J2*%
X50180000Y-35450000D03*
D11*
X52720000Y-35450000D03*
X55260000Y-35450000D03*
X57800000Y-35450000D03*
%TD*%
D23*
%TO.C,J1*%
X2200000Y-37400000D03*
D24*
X4200000Y-37400000D03*
%TD*%
M02*
