%TF.GenerationSoftware,KiCad,Pcbnew,8.0.6-8.0.6-0~ubuntu24.04.1*%
%TF.CreationDate,2025-11-22T22:57:41-05:00*%
%TF.ProjectId,rook,726f6f6b-2e6b-4696-9361-645f70636258,rev?*%
%TF.SameCoordinates,Original*%
%TF.FileFunction,Copper,L2,Bot*%
%TF.FilePolarity,Positive*%
%FSLAX46Y46*%
G04 Gerber Fmt 4.6, Leading zero omitted, Abs format (unit mm)*
G04 Created by KiCad (PCBNEW 8.0.6-8.0.6-0~ubuntu24.04.1) date 2025-11-22 22:57:41*
%MOMM*%
%LPD*%
G01*
G04 APERTURE LIST*
G04 Aperture macros list*
%AMRoundRect*
0 Rectangle with rounded corners*
0 $1 Rounding radius*
0 $2 $3 $4 $5 $6 $7 $8 $9 X,Y pos of 4 corners*
0 Add a 4 corners polygon primitive as box body*
4,1,4,$2,$3,$4,$5,$6,$7,$8,$9,$2,$3,0*
0 Add four circle primitives for the rounded corners*
1,1,$1+$1,$2,$3*
1,1,$1+$1,$4,$5*
1,1,$1+$1,$6,$7*
1,1,$1+$1,$8,$9*
0 Add four rect primitives between the rounded corners*
20,1,$1+$1,$2,$3,$4,$5,0*
20,1,$1+$1,$4,$5,$6,$7,0*
20,1,$1+$1,$6,$7,$8,$9,0*
20,1,$1+$1,$8,$9,$2,$3,0*%
G04 Aperture macros list end*
%TA.AperFunction,ComponentPad*%
%ADD10R,1.700000X1.700000*%
%TD*%
%TA.AperFunction,ComponentPad*%
%ADD11O,1.700000X1.700000*%
%TD*%
%TA.AperFunction,ComponentPad*%
%ADD12C,1.752600*%
%TD*%
%TA.AperFunction,ComponentPad*%
%ADD13C,1.400000*%
%TD*%
%TA.AperFunction,ComponentPad*%
%ADD14O,1.400000X1.400000*%
%TD*%
%TA.AperFunction,ComponentPad*%
%ADD15C,2.000000*%
%TD*%
%TA.AperFunction,ComponentPad*%
%ADD16C,2.100000*%
%TD*%
%TA.AperFunction,ComponentPad*%
%ADD17C,1.750000*%
%TD*%
%TA.AperFunction,ComponentPad*%
%ADD18O,1.350000X1.350000*%
%TD*%
%TA.AperFunction,ComponentPad*%
%ADD19R,1.350000X1.350000*%
%TD*%
%TA.AperFunction,ComponentPad*%
%ADD20R,2.600000X2.600000*%
%TD*%
%TA.AperFunction,ComponentPad*%
%ADD21C,2.600000*%
%TD*%
%TA.AperFunction,ComponentPad*%
%ADD22O,1.200000X1.750000*%
%TD*%
%TA.AperFunction,ComponentPad*%
%ADD23RoundRect,0.250000X0.350000X0.625000X-0.350000X0.625000X-0.350000X-0.625000X0.350000X-0.625000X0*%
%TD*%
%TA.AperFunction,ViaPad*%
%ADD24C,0.600000*%
%TD*%
%TA.AperFunction,Conductor*%
%ADD25C,0.300000*%
%TD*%
%TA.AperFunction,Conductor*%
%ADD26C,0.700000*%
%TD*%
G04 APERTURE END LIST*
D10*
%TO.P,J9,1,Pin_1*%
%TO.N,V_EXT*%
X6400000Y-42100000D03*
D11*
%TO.P,J9,2,Pin_2*%
%TO.N,BAT*%
X8940000Y-42100000D03*
%TO.P,J9,3,Pin_3*%
%TO.N,3V3*%
X11480000Y-42100000D03*
%TO.P,J9,4,Pin_4*%
%TO.N,SDA*%
X14020000Y-42100000D03*
%TO.P,J9,5,Pin_5*%
%TO.N,SCL*%
X16560000Y-42100000D03*
%TO.P,J9,6,Pin_6*%
%TO.N,GND*%
X19100000Y-42100000D03*
%TO.P,J9,7,Pin_7*%
%TO.N,P0_6*%
X21640000Y-42100000D03*
%TO.P,J9,8,Pin_8*%
%TO.N,P0_8*%
X24180000Y-42100000D03*
%TO.P,J9,9,Pin_9*%
%TO.N,P2*%
X26720000Y-42100000D03*
%TO.P,J9,10,Pin_10*%
%TO.N,P3*%
X29260000Y-42100000D03*
%TD*%
D12*
%TO.P,U2,1,TX0/P0.06*%
%TO.N,P0_6*%
X3240000Y-31450000D03*
%TO.P,U2,2,RX1/P0.08*%
%TO.N,P0_8*%
X5780000Y-31450000D03*
%TO.P,U2,3,GND*%
%TO.N,GND*%
X8320000Y-31450000D03*
%TO.P,U2,4,GND*%
X10860000Y-31450000D03*
%TO.P,U2,5,P0.17*%
%TO.N,RF_SW*%
X13400000Y-31450000D03*
%TO.P,U2,6,P0.20*%
%TO.N,GPS_RX*%
X15940000Y-31450000D03*
%TO.P,U2,7,P0.22*%
%TO.N,GPS_TX*%
X18480000Y-31450000D03*
%TO.P,U2,8,P0.24*%
%TO.N,GPS_EN*%
X21020000Y-31450000D03*
%TO.P,U2,9,P1.00*%
%TO.N,BUTTON_A*%
X23560000Y-31450000D03*
%TO.P,U2,10,P0.11*%
%TO.N,SCL*%
X26100000Y-31450000D03*
%TO.P,U2,11,P1.04*%
%TO.N,SDA*%
X28640000Y-31450000D03*
%TO.P,U2,12,P1.06*%
%TO.N,P1_06*%
X31180000Y-31450000D03*
%TO.P,U2,13,NFC1/P0.09*%
%TO.N,LORA_RST*%
X31180000Y-16210000D03*
%TO.P,U2,14,NFC2/P0.10*%
%TO.N,DIO1*%
X28640000Y-16210000D03*
%TO.P,U2,15,P1.11*%
%TO.N,SCK*%
X26100000Y-16210000D03*
%TO.P,U2,16,P1.13*%
%TO.N,LORA_CS*%
X23560000Y-16210000D03*
%TO.P,U2,17,P1.15*%
%TO.N,MOSI*%
X21020000Y-16210000D03*
%TO.P,U2,18,AIN0/P0.02*%
%TO.N,MISO*%
X18480000Y-16210000D03*
%TO.P,U2,19,AIN5/P0.29*%
%TO.N,BUSY*%
X15940000Y-16210000D03*
%TO.P,U2,20,AIN7/P0.31*%
%TO.N,MESH_BATT_MEASURE*%
X13400000Y-16210000D03*
%TO.P,U2,21,VCC*%
%TO.N,3V3*%
X10860000Y-16210000D03*
%TO.P,U2,22,RST*%
%TO.N,MESH_RST*%
X8320000Y-16210000D03*
%TO.P,U2,23,GND*%
%TO.N,GND*%
X5780000Y-16210000D03*
%TO.P,U2,24,BAT*%
%TO.N,BAT*%
X3240000Y-16210000D03*
%TO.P,U2,25,BAT*%
X700000Y-16210000D03*
%TO.P,U2,26,GND*%
%TO.N,GND*%
X700000Y-31450000D03*
%TD*%
D13*
%TO.P,R10,1*%
%TO.N,P1_06*%
X19150000Y-26380000D03*
D14*
%TO.P,R10,2*%
%TO.N,3V3*%
X19150000Y-21300000D03*
%TD*%
D15*
%TO.P,SW4,1,1*%
%TO.N,MESH_RST*%
X4300000Y-5600000D03*
X4300000Y-12100000D03*
%TO.P,SW4,2,2*%
%TO.N,GND*%
X-200000Y-5600000D03*
X-200000Y-12100000D03*
%TD*%
D16*
%TO.P,SW1,*%
%TO.N,*%
X69660000Y-5200000D03*
X69660000Y-12210000D03*
D17*
%TO.P,SW1,1,1*%
%TO.N,BUTTON_A*%
X72150000Y-6450000D03*
%TO.P,SW1,2,2*%
%TO.N,GND*%
X72150000Y-10950000D03*
%TD*%
D13*
%TO.P,R1,1*%
%TO.N,MESH_BATT_MEASURE*%
X13300000Y-26500000D03*
D14*
%TO.P,R1,2*%
%TO.N,GND*%
X13300000Y-21420000D03*
%TD*%
D16*
%TO.P,SW2,*%
%TO.N,*%
X69560000Y-16050000D03*
X69560000Y-23060000D03*
D17*
%TO.P,SW2,1,1*%
%TO.N,BUTTON_B*%
X72050000Y-17300000D03*
%TO.P,SW2,2,2*%
%TO.N,GND*%
X72050000Y-21800000D03*
%TD*%
D16*
%TO.P,SW3,*%
%TO.N,*%
X69510000Y-26900000D03*
X69510000Y-33910000D03*
D17*
%TO.P,SW3,1,1*%
%TO.N,BUTTON_C*%
X72000000Y-28150000D03*
%TO.P,SW3,2,2*%
%TO.N,GND*%
X72000000Y-32650000D03*
%TD*%
D10*
%TO.P,J3,4,Pin_4*%
%TO.N,SDA*%
X54450000Y440000D03*
D11*
%TO.P,J3,3,Pin_3*%
%TO.N,SCL*%
X51910000Y440000D03*
%TO.P,J3,2,Pin_2*%
%TO.N,GND*%
X49370000Y440000D03*
%TO.P,J3,1,Pin_1*%
%TO.N,3V3*%
X46830000Y440000D03*
%TD*%
D13*
%TO.P,R3,1*%
%TO.N,SCL*%
X42620000Y580000D03*
D14*
%TO.P,R3,2*%
%TO.N,3V3*%
X37540000Y580000D03*
%TD*%
D13*
%TO.P,R2,1*%
%TO.N,BAT*%
X7150000Y-21500000D03*
D14*
%TO.P,R2,2*%
%TO.N,MESH_BATT_MEASURE*%
X7150000Y-26580000D03*
%TD*%
D18*
%TO.P,U4,1,GND*%
%TO.N,GND*%
X59650000Y-42050000D03*
%TO.P,U4,2,VCC*%
%TO.N,3V3*%
X61650000Y-42050000D03*
%TO.P,U4,3,SDA*%
%TO.N,SDA*%
X63650000Y-42050000D03*
D19*
%TO.P,U4,4,SCL*%
%TO.N,SCL*%
X65650000Y-42050000D03*
%TD*%
D10*
%TO.P,J8,1,Pin_1*%
%TO.N,BAT*%
X71400000Y-38920000D03*
D11*
%TO.P,J8,2,Pin_2*%
%TO.N,V_EXT*%
X71400000Y-41460000D03*
%TO.P,J8,3,Pin_3*%
%TO.N,unconnected-(J8-Pin_3-Pad3)*%
X71400000Y-44000000D03*
%TD*%
D20*
%TO.P,J7,1,Pin_1*%
%TO.N,P1_06*%
X34550000Y-40150000D03*
D21*
%TO.P,J7,2,Pin_2*%
%TO.N,3V3*%
X39630000Y-40150000D03*
%TO.P,J7,3,Pin_3*%
%TO.N,GND*%
X44710000Y-40150000D03*
%TD*%
D10*
%TO.P,J4,1,Pin_1*%
%TO.N,ANT*%
X28250000Y1040000D03*
%TD*%
D14*
%TO.P,R4,2*%
%TO.N,3V3*%
X58760000Y570000D03*
D13*
%TO.P,R4,1*%
%TO.N,SDA*%
X63840000Y570000D03*
%TD*%
D10*
%TO.P,J2,1,Pin_1*%
%TO.N,3V3*%
X50180000Y-35450000D03*
D11*
%TO.P,J2,2,Pin_2*%
%TO.N,Net-(J2-Pin_2)*%
X52720000Y-35450000D03*
%TO.P,J2,3,Pin_3*%
%TO.N,Net-(J2-Pin_3)*%
X55260000Y-35450000D03*
%TO.P,J2,4,Pin_4*%
%TO.N,GPS_GND*%
X57800000Y-35450000D03*
%TD*%
D22*
%TO.P,J1,2,Pin_2*%
%TO.N,GND*%
X2200000Y-37400000D03*
D23*
%TO.P,J1,1,Pin_1*%
%TO.N,V_EXT*%
X4200000Y-37400000D03*
%TD*%
D24*
%TO.N,GND*%
X73850000Y-22800000D03*
%TO.N,V_EXT*%
X4700003Y-42100000D03*
%TO.N,GND*%
X10800000Y-29200000D03*
X700000Y-28800000D03*
%TO.N,P3*%
X49200000Y-15200000D03*
X47600000Y-15300000D03*
X31700000Y-19300000D03*
X46800000Y-18900000D03*
%TO.N,P2*%
X48500000Y-14100000D03*
X46000000Y-33400000D03*
X47200000Y-14300000D03*
X27600000Y-33900000D03*
%TO.N,SCL*%
X42700000Y-4800000D03*
%TO.N,LORA_CS*%
X29700000Y-19700000D03*
X24000000Y-20100000D03*
%TO.N,P1_06*%
X10300000Y-28000000D03*
%TO.N,MOSI*%
X12000000Y-9500000D03*
%TO.N,SCK*%
X14200000Y-7000000D03*
X26300000Y-7700000D03*
%TO.N,DIO1*%
X20500000Y-3500000D03*
X19800000Y-17400000D03*
X24300000Y-3200000D03*
X28000000Y-17800000D03*
%TO.N,LORA_RST*%
X31000000Y-14200000D03*
X28400000Y-13700000D03*
%TO.N,RF_SW*%
X22200000Y-19600000D03*
X16000000Y-20200000D03*
%TO.N,MOSI*%
X25400000Y-11100000D03*
X21500000Y-10900000D03*
%TO.N,MISO*%
X24200000Y-14200000D03*
X18800000Y-14500000D03*
%TO.N,BUSY*%
X25700000Y-6100000D03*
X16600000Y-6700000D03*
%TO.N,MESH_BATT_MEASURE*%
X11800000Y-24900000D03*
X8300000Y-24900000D03*
%TO.N,P0_8*%
X23100000Y-33100000D03*
%TO.N,P0_6*%
X21800000Y-34000000D03*
X3700000Y-33200000D03*
%TO.N,SCL*%
X17200000Y-38300000D03*
%TO.N,SDA*%
X14900000Y-34900000D03*
X28640000Y-34400000D03*
%TO.N,P1_06*%
X19400000Y-27800000D03*
X30600000Y-28100000D03*
%TO.N,BUTTON_A*%
X36400000Y-22300000D03*
X23300000Y-23100000D03*
X37200000Y-6600000D03*
%TO.N,BUTTON_B*%
X53200000Y-17900000D03*
%TO.N,BUTTON_C*%
X67300000Y-28500000D03*
X66800000Y-13100000D03*
X52100000Y-12700000D03*
%TO.N,GPS_EN*%
X21300000Y-27300000D03*
X44700000Y-26700000D03*
X47800000Y-26700000D03*
%TO.N,GPS_RX*%
X16300000Y-29700000D03*
X53700000Y-29550000D03*
%TO.N,GPS_TX*%
X58200000Y-26600000D03*
X18600000Y-28800000D03*
%TO.N,Net-(J2-Pin_2)*%
X51800000Y-26400000D03*
X55000000Y-26100000D03*
%TO.N,GPS_RX*%
X51700000Y-21800000D03*
X55200000Y-21600000D03*
%TO.N,GPS_TX*%
X60100000Y-21600000D03*
X63500000Y-21500000D03*
%TO.N,Net-(J2-Pin_3)*%
X63300000Y-26800000D03*
%TO.N,SDA*%
X63650000Y-29400000D03*
%TO.N,Net-(J2-Pin_3)*%
X59800000Y-26800000D03*
X55800000Y-27400000D03*
%TO.N,P1_06*%
X34300000Y-31700000D03*
%TO.N,SCL*%
X50100000Y-38100000D03*
X27600000Y-37700000D03*
%TO.N,SDA*%
X51900000Y-37500000D03*
X29200000Y-36900000D03*
%TO.N,SCL*%
X50000000Y-40000000D03*
X65650000Y-40500000D03*
%TO.N,SDA*%
X52200000Y-38600000D03*
X63650000Y-39300000D03*
%TO.N,3V3*%
X53000000Y-46400000D03*
X61300000Y-46400000D03*
%TO.N,SDA*%
X63840000Y-2300000D03*
%TO.N,SCL*%
X64800000Y-6500000D03*
X52200000Y-5200000D03*
%TO.N,SDA*%
X61700000Y-8700000D03*
X63700000Y-8600000D03*
%TO.N,3V3*%
X58000000Y-7500000D03*
X58100000Y-11300000D03*
%TO.N,SCL*%
X61900000Y-10200000D03*
X64700000Y-10200000D03*
%TO.N,3V3*%
X39160000Y-3590000D03*
X60300000Y-3650000D03*
X46850000Y-3650000D03*
%TO.N,GPS_GND*%
X42800000Y-28650000D03*
X57800000Y-28700000D03*
X42700000Y-25700000D03*
X39300000Y-25700000D03*
%TO.N,GND*%
X18650000Y-4550000D03*
X41450000Y-30650000D03*
X41350000Y-19950000D03*
X73700000Y-32700000D03*
X72150000Y-14450000D03*
X73850000Y-14550000D03*
X49250000Y-1550000D03*
X43800000Y-2000000D03*
X39350000Y-8000000D03*
X30650000Y-8000000D03*
%TO.N,3V3*%
X31350000Y-42550000D03*
X39600000Y-42500000D03*
%TO.N,BAT*%
X37050000Y-43800000D03*
X36950000Y-35900000D03*
X8800000Y-36000000D03*
X67300000Y-43800000D03*
%TO.N,GND*%
X71950000Y-30700000D03*
X44700000Y-30600000D03*
X59650000Y-30700000D03*
%TO.N,3V3*%
X50050000Y-32650000D03*
%TO.N,GND*%
X54000000Y-42050000D03*
X48150000Y-16450000D03*
%TO.N,3V3*%
X34350000Y500000D03*
%TO.N,GND*%
X48150000Y-20000000D03*
X44500000Y-19950000D03*
X39300000Y-19950000D03*
X8700000Y1150000D03*
X8600000Y-14100000D03*
X15200000Y1150000D03*
X18550000Y1250000D03*
X22450000Y1350000D03*
X22400000Y-4550000D03*
X26900000Y-4550000D03*
X30600000Y-4550000D03*
%TO.N,3V3*%
X31900000Y-10300000D03*
X34250000Y-10200000D03*
X10850000Y-13150000D03*
X12850000Y-13100000D03*
X34400000Y-27300000D03*
X39400000Y-27450000D03*
X34250000Y-21050000D03*
X39600000Y-35550000D03*
X31300000Y-39250000D03*
X11550000Y-39250000D03*
%TO.N,BAT*%
X-1550000Y-16200000D03*
X-1450000Y-21550000D03*
X8900000Y-40050000D03*
X-1450000Y-40000000D03*
%TO.N,GND*%
X19050000Y-37400000D03*
X10850000Y-37350000D03*
X750000Y-18800000D03*
%TO.N,3V3*%
X18900000Y-17900000D03*
X10950000Y-17750000D03*
%TO.N,GND*%
X13250000Y-19050000D03*
X5800000Y-18750000D03*
X5850000Y-14100000D03*
X-50000Y-14150000D03*
%TO.N,3V3*%
X61600000Y-32400000D03*
%TO.N,BAT*%
X67500000Y-38900000D03*
%TO.N,V_EXT*%
X68850000Y-45250000D03*
X6300000Y-45150000D03*
X68850000Y-41450000D03*
%TO.N,SDA*%
X55600000Y-1100000D03*
%TD*%
D25*
%TO.N,BUTTON_C*%
X67300000Y-28500000D02*
X71650000Y-28500000D01*
X71650000Y-28500000D02*
X72000000Y-28150000D01*
D26*
%TO.N,GND*%
X72050000Y-21800000D02*
X72850000Y-21800000D01*
X72850000Y-21800000D02*
X73850000Y-22800000D01*
D25*
%TO.N,BUTTON_B*%
X72050000Y-17300000D02*
X72050000Y-18350000D01*
D26*
%TO.N,V_EXT*%
X4700003Y-42100000D02*
X6400000Y-42100000D01*
%TO.N,GND*%
X1100000Y-29200000D02*
X10800000Y-29200000D01*
X700000Y-28800000D02*
X1100000Y-29200000D01*
D25*
%TO.N,P3*%
X49100000Y-15300000D02*
X49200000Y-15200000D01*
X47600000Y-15300000D02*
X49100000Y-15300000D01*
X31700000Y-19300000D02*
X37660051Y-19300000D01*
X38060051Y-18900000D02*
X46800000Y-18900000D01*
X37660051Y-19300000D02*
X38060051Y-18900000D01*
%TO.N,P2*%
X47400000Y-14100000D02*
X47200000Y-14300000D01*
X48500000Y-14100000D02*
X47400000Y-14100000D01*
X28100000Y-33400000D02*
X27600000Y-33900000D01*
X46000000Y-33400000D02*
X28100000Y-33400000D01*
%TO.N,SCL*%
X43100000Y-5200000D02*
X42700000Y-4800000D01*
X52200000Y-5200000D02*
X43100000Y-5200000D01*
%TO.N,LORA_CS*%
X29300000Y-20100000D02*
X29700000Y-19700000D01*
X24000000Y-20100000D02*
X29300000Y-20100000D01*
%TO.N,P1_06*%
X10300000Y-28000000D02*
X10800000Y-28000000D01*
X10800000Y-28000000D02*
X11000000Y-27800000D01*
X11000000Y-27800000D02*
X19400000Y-27800000D01*
%TO.N,MOSI*%
X13400000Y-10900000D02*
X12000000Y-9500000D01*
X21500000Y-10900000D02*
X13400000Y-10900000D01*
%TO.N,SCK*%
X17300000Y-7600000D02*
X14800000Y-7600000D01*
X14800000Y-7600000D02*
X14200000Y-7000000D01*
X26300000Y-7700000D02*
X25900000Y-7700000D01*
X25900000Y-7700000D02*
X25800000Y-7600000D01*
X25800000Y-7600000D02*
X17300000Y-7600000D01*
%TO.N,DIO1*%
X20200000Y-17800000D02*
X19800000Y-17400000D01*
X28000000Y-17800000D02*
X20200000Y-17800000D01*
X24000000Y-3500000D02*
X24300000Y-3200000D01*
X20500000Y-3500000D02*
X24000000Y-3500000D01*
%TO.N,LORA_RST*%
X30800000Y-14000000D02*
X31000000Y-14200000D01*
X28700000Y-14000000D02*
X30800000Y-14000000D01*
X28400000Y-13700000D02*
X28700000Y-14000000D01*
%TO.N,RF_SW*%
X16100000Y-20100000D02*
X21800000Y-20100000D01*
X22200000Y-19700000D02*
X22200000Y-19600000D01*
X16000000Y-20200000D02*
X16100000Y-20100000D01*
X21800000Y-20100000D02*
X22200000Y-19700000D01*
%TO.N,MOSI*%
X25200000Y-10900000D02*
X25400000Y-11100000D01*
X21500000Y-10900000D02*
X25200000Y-10900000D01*
%TO.N,MISO*%
X23900000Y-14500000D02*
X24200000Y-14200000D01*
X18800000Y-14500000D02*
X23600000Y-14500000D01*
X23600000Y-14500000D02*
X23900000Y-14500000D01*
%TO.N,BUSY*%
X25100000Y-6700000D02*
X25700000Y-6100000D01*
X16600000Y-6700000D02*
X25100000Y-6700000D01*
%TO.N,MESH_BATT_MEASURE*%
X8300000Y-24900000D02*
X11800000Y-24900000D01*
X7150000Y-26580000D02*
X13220000Y-26580000D01*
X13220000Y-26580000D02*
X13300000Y-26500000D01*
%TO.N,P0_8*%
X23100000Y-33100000D02*
X7430000Y-33100000D01*
X7430000Y-33100000D02*
X5780000Y-31450000D01*
%TO.N,P0_6*%
X21400000Y-33600000D02*
X21800000Y-34000000D01*
X19400000Y-33600000D02*
X21400000Y-33600000D01*
X3700000Y-33200000D02*
X4100000Y-33200000D01*
X4100000Y-33200000D02*
X4500000Y-33600000D01*
X4500000Y-33600000D02*
X19400000Y-33600000D01*
%TO.N,SCL*%
X17200000Y-38300000D02*
X17300000Y-38200000D01*
X17300000Y-38200000D02*
X27100000Y-38200000D01*
X27100000Y-38200000D02*
X27600000Y-37700000D01*
%TO.N,SDA*%
X14900000Y-34900000D02*
X28140000Y-34900000D01*
X28140000Y-34900000D02*
X28640000Y-34400000D01*
%TO.N,P1_06*%
X19700000Y-28100000D02*
X19400000Y-27800000D01*
X30600000Y-28100000D02*
X19700000Y-28100000D01*
%TO.N,BUTTON_A*%
X71275001Y-7324999D02*
X63624999Y-7324999D01*
X62700000Y-6400000D02*
X37400000Y-6400000D01*
X36400000Y-22300000D02*
X24100000Y-22300000D01*
X63624999Y-7324999D02*
X62700000Y-6400000D01*
X37400000Y-6400000D02*
X37200000Y-6600000D01*
X24100000Y-22300000D02*
X23300000Y-23100000D01*
X72150000Y-6450000D02*
X71275001Y-7324999D01*
%TO.N,BUTTON_B*%
X53200000Y-17900000D02*
X54524999Y-19224999D01*
X54524999Y-19224999D02*
X71175001Y-19224999D01*
X71175001Y-19224999D02*
X72050000Y-18350000D01*
%TO.N,BUTTON_C*%
X52100000Y-12700000D02*
X65800000Y-12700000D01*
X65800000Y-12700000D02*
X66400000Y-12700000D01*
X66400000Y-12700000D02*
X66800000Y-13100000D01*
%TO.N,GPS_EN*%
X22000000Y-26600000D02*
X21300000Y-27300000D01*
X44600000Y-26600000D02*
X22000000Y-26600000D01*
X44700000Y-26700000D02*
X44600000Y-26600000D01*
X47800000Y-26700000D02*
X44700000Y-26700000D01*
%TO.N,GPS_RX*%
X16450000Y-29550000D02*
X16300000Y-29700000D01*
X53700000Y-29550000D02*
X16450000Y-29550000D01*
%TO.N,GPS_TX*%
X52850000Y-26750000D02*
X51650000Y-27950000D01*
X39039949Y-28800000D02*
X18600000Y-28800000D01*
X58200000Y-26600000D02*
X58050000Y-26750000D01*
X58050000Y-26750000D02*
X52850000Y-26750000D01*
X51650000Y-27950000D02*
X39889949Y-27950000D01*
X39889949Y-27950000D02*
X39039949Y-28800000D01*
%TO.N,Net-(J2-Pin_2)*%
X51800000Y-26400000D02*
X52400000Y-26400000D01*
X52400000Y-26400000D02*
X52700000Y-26100000D01*
X52700000Y-26100000D02*
X55000000Y-26100000D01*
%TO.N,GPS_RX*%
X51900000Y-21600000D02*
X51700000Y-21800000D01*
X55200000Y-21600000D02*
X51900000Y-21600000D01*
%TO.N,GPS_TX*%
X63500000Y-21500000D02*
X60200000Y-21500000D01*
X60200000Y-21500000D02*
X60100000Y-21600000D01*
%TO.N,Net-(J2-Pin_3)*%
X63300000Y-26800000D02*
X59800000Y-26800000D01*
X59200000Y-27400000D02*
X59800000Y-26800000D01*
X55800000Y-27400000D02*
X59200000Y-27400000D01*
%TO.N,P1_06*%
X34300000Y-31700000D02*
X34050000Y-31450000D01*
X34050000Y-31450000D02*
X31180000Y-31450000D01*
%TO.N,SCL*%
X49700000Y-37700000D02*
X50100000Y-38100000D01*
X27600000Y-37700000D02*
X49700000Y-37700000D01*
%TO.N,SDA*%
X29900000Y-37200000D02*
X51500000Y-37200000D01*
X29600000Y-36900000D02*
X29900000Y-37200000D01*
X29200000Y-36900000D02*
X29600000Y-36900000D01*
X51800000Y-37500000D02*
X51900000Y-37500000D01*
X51500000Y-37200000D02*
X51800000Y-37500000D01*
%TO.N,SCL*%
X50200000Y-40200000D02*
X50000000Y-40000000D01*
X65200000Y-40200000D02*
X50200000Y-40200000D01*
X65650000Y-40500000D02*
X65500000Y-40500000D01*
X65500000Y-40500000D02*
X65200000Y-40200000D01*
%TO.N,SDA*%
X52200000Y-38600000D02*
X62950000Y-38600000D01*
X62950000Y-38600000D02*
X63650000Y-39300000D01*
D26*
%TO.N,3V3*%
X61300000Y-46400000D02*
X53000000Y-46400000D01*
D25*
%TO.N,SCL*%
X52200000Y-5200000D02*
X63500000Y-5200000D01*
X63500000Y-5200000D02*
X64800000Y-6500000D01*
%TO.N,SDA*%
X61700000Y-8700000D02*
X63600000Y-8700000D01*
X63600000Y-8700000D02*
X63700000Y-8600000D01*
D26*
%TO.N,3V3*%
X58100000Y-7600000D02*
X58000000Y-7500000D01*
X58100000Y-11300000D02*
X58100000Y-7600000D01*
D25*
%TO.N,SCL*%
X64700000Y-10200000D02*
X61900000Y-10200000D01*
D26*
%TO.N,3V3*%
X39220000Y-3650000D02*
X39160000Y-3590000D01*
X41250000Y-3650000D02*
X39220000Y-3650000D01*
X46850000Y-3650000D02*
X60300000Y-3650000D01*
X46850000Y-3650000D02*
X41250000Y-3650000D01*
%TO.N,GPS_GND*%
X42850000Y-28700000D02*
X42800000Y-28650000D01*
X57800000Y-28700000D02*
X42850000Y-28700000D01*
X39300000Y-25700000D02*
X42700000Y-25700000D01*
%TO.N,GND*%
X18650000Y-4550000D02*
X22400000Y-4550000D01*
X44650000Y-30650000D02*
X44700000Y-30600000D01*
X41450000Y-30650000D02*
X44650000Y-30650000D01*
X39300000Y-19950000D02*
X44500000Y-19950000D01*
X72050000Y-32700000D02*
X72000000Y-32650000D01*
X73700000Y-32700000D02*
X72050000Y-32700000D01*
X72150000Y-14450000D02*
X73750000Y-14450000D01*
X73750000Y-14450000D02*
X73850000Y-14550000D01*
X49250000Y-1550000D02*
X44250000Y-1550000D01*
X44250000Y-1550000D02*
X43800000Y-2000000D01*
X39350000Y-8000000D02*
X30650000Y-8000000D01*
%TO.N,3V3*%
X31400000Y-42500000D02*
X31350000Y-42550000D01*
X39600000Y-42500000D02*
X31400000Y-42500000D01*
%TO.N,BAT*%
X36950000Y-35900000D02*
X8900000Y-35900000D01*
X8900000Y-35900000D02*
X8800000Y-36000000D01*
X67300000Y-43800000D02*
X37050000Y-43800000D01*
%TO.N,GND*%
X59650000Y-30700000D02*
X71950000Y-30700000D01*
X59550000Y-30600000D02*
X59650000Y-30700000D01*
X44700000Y-30600000D02*
X59550000Y-30600000D01*
%TO.N,3V3*%
X50300000Y-32400000D02*
X50050000Y-32650000D01*
%TO.N,GND*%
X59650000Y-42050000D02*
X54000000Y-42050000D01*
X48150000Y-16450000D02*
X48150000Y-20000000D01*
%TO.N,3V3*%
X34350000Y500000D02*
X37350000Y500000D01*
X37350000Y500000D02*
X37450000Y600000D01*
%TO.N,GND*%
X48100000Y-19950000D02*
X48150000Y-20000000D01*
X44500000Y-19950000D02*
X48100000Y-19950000D01*
X15200000Y1150000D02*
X8700000Y1150000D01*
X5850000Y-14100000D02*
X8600000Y-14100000D01*
X26900000Y-4550000D02*
X22400000Y-4550000D01*
X15300000Y1250000D02*
X15200000Y1150000D01*
X18550000Y1250000D02*
X15300000Y1250000D01*
X22450000Y1350000D02*
X18650000Y1350000D01*
X18650000Y1350000D02*
X18550000Y1250000D01*
X30600000Y-4550000D02*
X26900000Y-4550000D01*
%TO.N,3V3*%
X32000000Y-10200000D02*
X31900000Y-10300000D01*
X34250000Y-10200000D02*
X32000000Y-10200000D01*
X12850000Y-13100000D02*
X10900000Y-13100000D01*
X10900000Y-13100000D02*
X10850000Y-13150000D01*
X34550000Y-27450000D02*
X34400000Y-27300000D01*
X39400000Y-27450000D02*
X34550000Y-27450000D01*
X34000000Y-21300000D02*
X19150000Y-21300000D01*
X34250000Y-21050000D02*
X34000000Y-21300000D01*
X39600000Y-35550000D02*
X39700000Y-35450000D01*
X39700000Y-35450000D02*
X50180000Y-35450000D01*
X11550000Y-39250000D02*
X31300000Y-39250000D01*
%TO.N,BAT*%
X700000Y-16210000D02*
X3240000Y-16210000D01*
X-1550000Y-16200000D02*
X690000Y-16200000D01*
X690000Y-16200000D02*
X700000Y-16210000D01*
X-1400000Y-21500000D02*
X7150000Y-21500000D01*
X8900000Y-40050000D02*
X-1400000Y-40050000D01*
X-1400000Y-40050000D02*
X-1450000Y-40000000D01*
X-1450000Y-21550000D02*
X-1400000Y-21500000D01*
%TO.N,GND*%
X19000000Y-37350000D02*
X19050000Y-37400000D01*
X10850000Y-37350000D02*
X19000000Y-37350000D01*
X8320000Y-31450000D02*
X10860000Y-31450000D01*
X5750000Y-18800000D02*
X5800000Y-18750000D01*
X750000Y-18800000D02*
X5750000Y-18800000D01*
%TO.N,3V3*%
X18800000Y-17800000D02*
X18900000Y-17900000D01*
X11000000Y-17800000D02*
X18800000Y-17800000D01*
X10950000Y-17750000D02*
X11000000Y-17800000D01*
%TO.N,GND*%
X12950000Y-18750000D02*
X13250000Y-19050000D01*
X5800000Y-18750000D02*
X12950000Y-18750000D01*
X5800000Y-14150000D02*
X5850000Y-14100000D01*
X-50000Y-14150000D02*
X5800000Y-14150000D01*
%TO.N,3V3*%
X61600000Y-32400000D02*
X50300000Y-32400000D01*
%TO.N,BAT*%
X67520000Y-38920000D02*
X67500000Y-38900000D01*
X71400000Y-38920000D02*
X67520000Y-38920000D01*
%TO.N,V_EXT*%
X71400000Y-41460000D02*
X68860000Y-41460000D01*
X68860000Y-41460000D02*
X68850000Y-41450000D01*
X6400000Y-45250000D02*
X6300000Y-45150000D01*
X68850000Y-45250000D02*
X6400000Y-45250000D01*
D25*
%TO.N,SDA*%
X62400000Y-1300000D02*
X56600000Y-1300000D01*
X62700000Y-1600000D02*
X62400000Y-1300000D01*
X56600000Y-1300000D02*
X55800000Y-1300000D01*
X63100000Y-1600000D02*
X62700000Y-1600000D01*
X63840000Y-2300000D02*
X63800000Y-2300000D01*
X63800000Y-2300000D02*
X63100000Y-1600000D01*
X55800000Y-1300000D02*
X55600000Y-1100000D01*
%TD*%
M02*
