<?xml version="1.0" standalone="no"?>
<!DOCTYPE svg PUBLIC "-//W3C//DTD SVG 1.1//EN" "http://www.w3.org/Graphics/SVG/1.1/DTD/svg11.dtd">
<svg width="98mm" height="138mm" viewBox="0 -138 98 138" xmlns="http://www.w3.org/2000/svg" version="1.1">
<title>OpenSCAD Model</title>
<path d="
M 98,-138 L 0,-138 L 0,-0 L 98,-0 z
M 9.07294,-115.147 L 7.57294,-116.237 L 7,-118 L 7.57294,-119.763 L 9.07294,-120.853 L 10.927,-120.853
 L 12.427,-119.763 L 13,-118 L 12.427,-116.237 L 10.927,-115.147 z
M 81.073,-115.147 L 79.573,-116.237 L 79,-118 L 79.573,-119.763 L 81.073,-120.853 L 82.927,-120.853
 L 84.427,-119.763 L 85,-118 L 84.427,-116.237 L 82.927,-115.147 z
M 9.07294,-71.1468 L 7.57294,-72.2366 L 7,-74 L 7.57294,-75.7634 L 9.07294,-76.8532 L 10.927,-76.8532
 L 12.427,-75.7634 L 13,-74 L 12.427,-72.2366 L 10.927,-71.1468 z
M 9.07294,-51.1468 L 7.57294,-52.2366 L 7,-54 L 7.57294,-55.7634 L 9.07294,-56.8532 L 10.927,-56.8532
 L 12.427,-55.7634 L 13,-54 L 12.427,-52.2366 L 10.927,-51.1468 z
" stroke="black" fill="lightgray" stroke-width="0.5"/>
</svg>
