%TF.GenerationSoftware,KiCad,Pcbnew,8.0.6-8.0.6-0~ubuntu24.04.1*%
%TF.CreationDate,2026-02-19T00:00:45-05:00*%
%TF.ProjectId,rook,726f6f6b-2e6b-4696-9361-645f70636258,rev?*%
%TF.SameCoordinates,Original*%
%TF.FileFunction,Legend,Bot*%
%TF.FilePolarity,Positive*%
%FSLAX46Y46*%
G04 Gerber Fmt 4.6, Leading zero omitted, Abs format (unit mm)*
G04 Created by KiCad (PCBNEW 8.0.6-8.0.6-0~ubuntu24.04.1) date 2026-02-19 00:00:45*
%MOMM*%
%LPD*%
G01*
G04 APERTURE LIST*
%ADD10C,0.150000*%
%ADD11C,0.381000*%
%ADD12C,0.120000*%
%ADD13C,0.100000*%
%ADD14C,1.752600*%
G04 APERTURE END LIST*
D10*
X63522744Y-22532057D02*
X62965601Y-22532057D01*
X62965601Y-22532057D02*
X63265601Y-22874914D01*
X63265601Y-22874914D02*
X63137030Y-22874914D01*
X63137030Y-22874914D02*
X63051316Y-22917771D01*
X63051316Y-22917771D02*
X63008458Y-22960628D01*
X63008458Y-22960628D02*
X62965601Y-23046342D01*
X62965601Y-23046342D02*
X62965601Y-23260628D01*
X62965601Y-23260628D02*
X63008458Y-23346342D01*
X63008458Y-23346342D02*
X63051316Y-23389200D01*
X63051316Y-23389200D02*
X63137030Y-23432057D01*
X63137030Y-23432057D02*
X63394173Y-23432057D01*
X63394173Y-23432057D02*
X63479887Y-23389200D01*
X63479887Y-23389200D02*
X63522744Y-23346342D01*
X62708458Y-22532057D02*
X62408458Y-23432057D01*
X62408458Y-23432057D02*
X62108458Y-22532057D01*
X63065601Y-20024914D02*
X63151316Y-19982057D01*
X63151316Y-19982057D02*
X63279887Y-19982057D01*
X63279887Y-19982057D02*
X63408458Y-20024914D01*
X63408458Y-20024914D02*
X63494173Y-20110628D01*
X63494173Y-20110628D02*
X63537030Y-20196342D01*
X63537030Y-20196342D02*
X63579887Y-20367771D01*
X63579887Y-20367771D02*
X63579887Y-20496342D01*
X63579887Y-20496342D02*
X63537030Y-20667771D01*
X63537030Y-20667771D02*
X63494173Y-20753485D01*
X63494173Y-20753485D02*
X63408458Y-20839200D01*
X63408458Y-20839200D02*
X63279887Y-20882057D01*
X63279887Y-20882057D02*
X63194173Y-20882057D01*
X63194173Y-20882057D02*
X63065601Y-20839200D01*
X63065601Y-20839200D02*
X63022744Y-20796342D01*
X63022744Y-20796342D02*
X63022744Y-20496342D01*
X63022744Y-20496342D02*
X63194173Y-20496342D01*
X62637030Y-20882057D02*
X62637030Y-19982057D01*
X62637030Y-19982057D02*
X62294173Y-19982057D01*
X62294173Y-19982057D02*
X62208458Y-20024914D01*
X62208458Y-20024914D02*
X62165601Y-20067771D01*
X62165601Y-20067771D02*
X62122744Y-20153485D01*
X62122744Y-20153485D02*
X62122744Y-20282057D01*
X62122744Y-20282057D02*
X62165601Y-20367771D01*
X62165601Y-20367771D02*
X62208458Y-20410628D01*
X62208458Y-20410628D02*
X62294173Y-20453485D01*
X62294173Y-20453485D02*
X62637030Y-20453485D01*
X61779887Y-20839200D02*
X61651316Y-20882057D01*
X61651316Y-20882057D02*
X61437030Y-20882057D01*
X61437030Y-20882057D02*
X61351316Y-20839200D01*
X61351316Y-20839200D02*
X61308458Y-20796342D01*
X61308458Y-20796342D02*
X61265601Y-20710628D01*
X61265601Y-20710628D02*
X61265601Y-20624914D01*
X61265601Y-20624914D02*
X61308458Y-20539200D01*
X61308458Y-20539200D02*
X61351316Y-20496342D01*
X61351316Y-20496342D02*
X61437030Y-20453485D01*
X61437030Y-20453485D02*
X61608458Y-20410628D01*
X61608458Y-20410628D02*
X61694173Y-20367771D01*
X61694173Y-20367771D02*
X61737030Y-20324914D01*
X61737030Y-20324914D02*
X61779887Y-20239200D01*
X61779887Y-20239200D02*
X61779887Y-20153485D01*
X61779887Y-20153485D02*
X61737030Y-20067771D01*
X61737030Y-20067771D02*
X61694173Y-20024914D01*
X61694173Y-20024914D02*
X61608458Y-19982057D01*
X61608458Y-19982057D02*
X61394173Y-19982057D01*
X61394173Y-19982057D02*
X61265601Y-20024914D01*
X61094173Y-20967771D02*
X60408458Y-20967771D01*
X59679887Y-20882057D02*
X59979887Y-20453485D01*
X60194173Y-20882057D02*
X60194173Y-19982057D01*
X60194173Y-19982057D02*
X59851316Y-19982057D01*
X59851316Y-19982057D02*
X59765601Y-20024914D01*
X59765601Y-20024914D02*
X59722744Y-20067771D01*
X59722744Y-20067771D02*
X59679887Y-20153485D01*
X59679887Y-20153485D02*
X59679887Y-20282057D01*
X59679887Y-20282057D02*
X59722744Y-20367771D01*
X59722744Y-20367771D02*
X59765601Y-20410628D01*
X59765601Y-20410628D02*
X59851316Y-20453485D01*
X59851316Y-20453485D02*
X60194173Y-20453485D01*
X59379887Y-19982057D02*
X58779887Y-20882057D01*
X58779887Y-19982057D02*
X59379887Y-20882057D01*
X63215601Y-15474914D02*
X63301316Y-15432057D01*
X63301316Y-15432057D02*
X63429887Y-15432057D01*
X63429887Y-15432057D02*
X63558458Y-15474914D01*
X63558458Y-15474914D02*
X63644173Y-15560628D01*
X63644173Y-15560628D02*
X63687030Y-15646342D01*
X63687030Y-15646342D02*
X63729887Y-15817771D01*
X63729887Y-15817771D02*
X63729887Y-15946342D01*
X63729887Y-15946342D02*
X63687030Y-16117771D01*
X63687030Y-16117771D02*
X63644173Y-16203485D01*
X63644173Y-16203485D02*
X63558458Y-16289200D01*
X63558458Y-16289200D02*
X63429887Y-16332057D01*
X63429887Y-16332057D02*
X63344173Y-16332057D01*
X63344173Y-16332057D02*
X63215601Y-16289200D01*
X63215601Y-16289200D02*
X63172744Y-16246342D01*
X63172744Y-16246342D02*
X63172744Y-15946342D01*
X63172744Y-15946342D02*
X63344173Y-15946342D01*
X62787030Y-16332057D02*
X62787030Y-15432057D01*
X62787030Y-15432057D02*
X62444173Y-15432057D01*
X62444173Y-15432057D02*
X62358458Y-15474914D01*
X62358458Y-15474914D02*
X62315601Y-15517771D01*
X62315601Y-15517771D02*
X62272744Y-15603485D01*
X62272744Y-15603485D02*
X62272744Y-15732057D01*
X62272744Y-15732057D02*
X62315601Y-15817771D01*
X62315601Y-15817771D02*
X62358458Y-15860628D01*
X62358458Y-15860628D02*
X62444173Y-15903485D01*
X62444173Y-15903485D02*
X62787030Y-15903485D01*
X61929887Y-16289200D02*
X61801316Y-16332057D01*
X61801316Y-16332057D02*
X61587030Y-16332057D01*
X61587030Y-16332057D02*
X61501316Y-16289200D01*
X61501316Y-16289200D02*
X61458458Y-16246342D01*
X61458458Y-16246342D02*
X61415601Y-16160628D01*
X61415601Y-16160628D02*
X61415601Y-16074914D01*
X61415601Y-16074914D02*
X61458458Y-15989200D01*
X61458458Y-15989200D02*
X61501316Y-15946342D01*
X61501316Y-15946342D02*
X61587030Y-15903485D01*
X61587030Y-15903485D02*
X61758458Y-15860628D01*
X61758458Y-15860628D02*
X61844173Y-15817771D01*
X61844173Y-15817771D02*
X61887030Y-15774914D01*
X61887030Y-15774914D02*
X61929887Y-15689200D01*
X61929887Y-15689200D02*
X61929887Y-15603485D01*
X61929887Y-15603485D02*
X61887030Y-15517771D01*
X61887030Y-15517771D02*
X61844173Y-15474914D01*
X61844173Y-15474914D02*
X61758458Y-15432057D01*
X61758458Y-15432057D02*
X61544173Y-15432057D01*
X61544173Y-15432057D02*
X61415601Y-15474914D01*
X61244173Y-16417771D02*
X60558458Y-16417771D01*
X59872744Y-15474914D02*
X59958459Y-15432057D01*
X59958459Y-15432057D02*
X60087030Y-15432057D01*
X60087030Y-15432057D02*
X60215601Y-15474914D01*
X60215601Y-15474914D02*
X60301316Y-15560628D01*
X60301316Y-15560628D02*
X60344173Y-15646342D01*
X60344173Y-15646342D02*
X60387030Y-15817771D01*
X60387030Y-15817771D02*
X60387030Y-15946342D01*
X60387030Y-15946342D02*
X60344173Y-16117771D01*
X60344173Y-16117771D02*
X60301316Y-16203485D01*
X60301316Y-16203485D02*
X60215601Y-16289200D01*
X60215601Y-16289200D02*
X60087030Y-16332057D01*
X60087030Y-16332057D02*
X60001316Y-16332057D01*
X60001316Y-16332057D02*
X59872744Y-16289200D01*
X59872744Y-16289200D02*
X59829887Y-16246342D01*
X59829887Y-16246342D02*
X59829887Y-15946342D01*
X59829887Y-15946342D02*
X60001316Y-15946342D01*
X59444173Y-16332057D02*
X59444173Y-15432057D01*
X59444173Y-15432057D02*
X58929887Y-16332057D01*
X58929887Y-16332057D02*
X58929887Y-15432057D01*
X58501316Y-16332057D02*
X58501316Y-15432057D01*
X58501316Y-15432057D02*
X58287030Y-15432057D01*
X58287030Y-15432057D02*
X58158459Y-15474914D01*
X58158459Y-15474914D02*
X58072744Y-15560628D01*
X58072744Y-15560628D02*
X58029887Y-15646342D01*
X58029887Y-15646342D02*
X57987030Y-15817771D01*
X57987030Y-15817771D02*
X57987030Y-15946342D01*
X57987030Y-15946342D02*
X58029887Y-16117771D01*
X58029887Y-16117771D02*
X58072744Y-16203485D01*
X58072744Y-16203485D02*
X58158459Y-16289200D01*
X58158459Y-16289200D02*
X58287030Y-16332057D01*
X58287030Y-16332057D02*
X58501316Y-16332057D01*
X63165601Y-17524914D02*
X63251316Y-17482057D01*
X63251316Y-17482057D02*
X63379887Y-17482057D01*
X63379887Y-17482057D02*
X63508458Y-17524914D01*
X63508458Y-17524914D02*
X63594173Y-17610628D01*
X63594173Y-17610628D02*
X63637030Y-17696342D01*
X63637030Y-17696342D02*
X63679887Y-17867771D01*
X63679887Y-17867771D02*
X63679887Y-17996342D01*
X63679887Y-17996342D02*
X63637030Y-18167771D01*
X63637030Y-18167771D02*
X63594173Y-18253485D01*
X63594173Y-18253485D02*
X63508458Y-18339200D01*
X63508458Y-18339200D02*
X63379887Y-18382057D01*
X63379887Y-18382057D02*
X63294173Y-18382057D01*
X63294173Y-18382057D02*
X63165601Y-18339200D01*
X63165601Y-18339200D02*
X63122744Y-18296342D01*
X63122744Y-18296342D02*
X63122744Y-17996342D01*
X63122744Y-17996342D02*
X63294173Y-17996342D01*
X62737030Y-18382057D02*
X62737030Y-17482057D01*
X62737030Y-17482057D02*
X62394173Y-17482057D01*
X62394173Y-17482057D02*
X62308458Y-17524914D01*
X62308458Y-17524914D02*
X62265601Y-17567771D01*
X62265601Y-17567771D02*
X62222744Y-17653485D01*
X62222744Y-17653485D02*
X62222744Y-17782057D01*
X62222744Y-17782057D02*
X62265601Y-17867771D01*
X62265601Y-17867771D02*
X62308458Y-17910628D01*
X62308458Y-17910628D02*
X62394173Y-17953485D01*
X62394173Y-17953485D02*
X62737030Y-17953485D01*
X61879887Y-18339200D02*
X61751316Y-18382057D01*
X61751316Y-18382057D02*
X61537030Y-18382057D01*
X61537030Y-18382057D02*
X61451316Y-18339200D01*
X61451316Y-18339200D02*
X61408458Y-18296342D01*
X61408458Y-18296342D02*
X61365601Y-18210628D01*
X61365601Y-18210628D02*
X61365601Y-18124914D01*
X61365601Y-18124914D02*
X61408458Y-18039200D01*
X61408458Y-18039200D02*
X61451316Y-17996342D01*
X61451316Y-17996342D02*
X61537030Y-17953485D01*
X61537030Y-17953485D02*
X61708458Y-17910628D01*
X61708458Y-17910628D02*
X61794173Y-17867771D01*
X61794173Y-17867771D02*
X61837030Y-17824914D01*
X61837030Y-17824914D02*
X61879887Y-17739200D01*
X61879887Y-17739200D02*
X61879887Y-17653485D01*
X61879887Y-17653485D02*
X61837030Y-17567771D01*
X61837030Y-17567771D02*
X61794173Y-17524914D01*
X61794173Y-17524914D02*
X61708458Y-17482057D01*
X61708458Y-17482057D02*
X61494173Y-17482057D01*
X61494173Y-17482057D02*
X61365601Y-17524914D01*
X61194173Y-18467771D02*
X60508458Y-18467771D01*
X60422744Y-17482057D02*
X59908459Y-17482057D01*
X60165601Y-18382057D02*
X60165601Y-17482057D01*
X59694173Y-17482057D02*
X59094173Y-18382057D01*
X59094173Y-17482057D02*
X59694173Y-18382057D01*
D11*
%TO.C,U2*%
X31390000Y-31260000D02*
X31390000Y-13480000D01*
X31390000Y-13480000D02*
X-1630000Y-13480000D01*
X-1630000Y-31260000D02*
X31390000Y-31260000D01*
X-1630000Y-13480000D02*
X-1630000Y-31260000D01*
D12*
%TO.C,J2*%
X64470000Y-14212500D02*
X64470000Y-21892500D01*
X67130000Y-14212500D02*
X64470000Y-14212500D01*
X67130000Y-14212500D02*
X67130000Y-21892500D01*
X67130000Y-21892500D02*
X64470000Y-21892500D01*
X67130000Y-23162500D02*
X67130000Y-24492500D01*
X67130000Y-24492500D02*
X65800000Y-24492500D01*
D13*
X32300000Y-32862500D02*
X67300000Y-32862500D01*
X67300000Y-6862500D01*
X32300000Y-6862500D01*
X32300000Y-32862500D01*
X37721267Y-12862500D02*
G75*
G02*
X34878733Y-12862500I-1421267J0D01*
G01*
X34878733Y-12862500D02*
G75*
G02*
X37721267Y-12862500I1421267J0D01*
G01*
%TD*%
D14*
%TO.C,U2*%
X-360000Y-29990000D03*
X-360000Y-14750000D03*
X2180000Y-14750000D03*
X4720000Y-14750000D03*
X7260000Y-14750000D03*
X9800000Y-14750000D03*
X12340000Y-14750000D03*
X14880000Y-14750000D03*
X17420000Y-14750000D03*
X19960000Y-14750000D03*
X22500000Y-14750000D03*
X25040000Y-14750000D03*
X27580000Y-14750000D03*
X30120000Y-14750000D03*
X30120000Y-29990000D03*
X27580000Y-29990000D03*
X25040000Y-29990000D03*
X22500000Y-29990000D03*
X19960000Y-29990000D03*
X17420000Y-29990000D03*
X14880000Y-29990000D03*
X12340000Y-29990000D03*
X9800000Y-29990000D03*
X7260000Y-29990000D03*
X4720000Y-29990000D03*
X2180000Y-29990000D03*
%TD*%
M02*
