M48
; DRILL file {KiCad 8.0.6-8.0.6-0~ubuntu24.04.1} date 2025-11-22T22:57:45-0500
; FORMAT={-:-/ absolute / inch / decimal}
; #@! TF.CreationDate,2025-11-22T22:57:45-05:00
; #@! TF.GenerationSoftware,Kicad,Pcbnew,8.0.6-8.0.6-0~ubuntu24.04.1
; #@! TF.FileFunction,MixedPlating,1,2
FMAT,2
INCH
; #@! TA.AperFunction,Plated,PTH,ViaDrill
T1C0.0118
; #@! TA.AperFunction,Plated,PTH,ComponentDrill
T2C0.0276
; #@! TA.AperFunction,Plated,PTH,ComponentDrill
T3C0.0295
; #@! TA.AperFunction,Plated,PTH,ComponentDrill
T4C0.0315
; #@! TA.AperFunction,Plated,PTH,ComponentDrill
T5C0.0390
; #@! TA.AperFunction,Plated,PTH,ComponentDrill
T6C0.0394
; #@! TA.AperFunction,Plated,PTH,ComponentDrill
T7C0.0430
; #@! TA.AperFunction,Plated,PTH,ComponentDrill
T8C0.0433
; #@! TA.AperFunction,Plated,PTH,ComponentDrill
T9C0.0512
; #@! TA.AperFunction,NonPlated,NPTH,ComponentDrill
T10C0.1260
%
G90
G05
T1
X-0.061Y-0.6378
X-0.0571Y-0.8484
X-0.0571Y-1.5748
X-0.002Y-0.5571
X0.0276Y-1.1339
X0.0295Y-0.7402
X0.1457Y-1.3071
X0.185Y-1.6575
X0.2283Y-0.7382
X0.2303Y-0.5551
X0.248Y-1.7776
X0.3268Y-0.9803
X0.3386Y-0.5551
X0.3425Y0.0453
X0.3465Y-1.4173
X0.3504Y-1.5768
X0.4055Y-1.1024
X0.4252Y-1.1496
X0.4272Y-0.5177
X0.4272Y-1.4705
X0.4311Y-0.6988
X0.4547Y-1.5453
X0.4646Y-0.9803
X0.4724Y-0.374
X0.5059Y-0.5157
X0.5217Y-0.75
X0.5591Y-0.2756
X0.5866Y-1.374
X0.5984Y0.0453
X0.6299Y-0.7953
X0.6417Y-1.1693
X0.6535Y-0.2638
X0.6772Y-1.5079
X0.7303Y0.0492
X0.7323Y-1.1339
X0.7343Y-0.1791
X0.7402Y-0.5709
X0.7441Y-0.7047
X0.75Y-1.4724
X0.7638Y-1.0945
X0.7795Y-0.685
X0.8071Y-0.1378
X0.8386Y-1.0748
X0.8465Y-0.4291
X0.8583Y-1.3386
X0.874Y-0.7717
X0.8819Y-0.1791
X0.8839Y0.0531
X0.9094Y-1.3031
X0.9173Y-0.9094
X0.9449Y-0.7913
X0.9528Y-0.5591
X0.9567Y-0.126
X1.0Y-0.437
X1.0118Y-0.2402
X1.0354Y-0.3031
X1.0591Y-0.1791
X1.0866Y-1.3346
X1.0866Y-1.4843
X1.1024Y-0.7008
X1.1181Y-0.5394
X1.1276Y-1.3543
X1.1496Y-1.4528
X1.1693Y-0.7756
X1.2047Y-0.1791
X1.2047Y-1.1063
X1.2067Y-0.315
X1.2205Y-0.5591
X1.2323Y-1.5453
X1.2343Y-1.6752
X1.248Y-0.7598
X1.2559Y-0.4055
X1.3484Y-0.4016
X1.3484Y-0.8287
X1.3504Y-1.248
X1.3524Y0.0197
X1.3543Y-1.0748
X1.4331Y-0.878
X1.4547Y-1.4134
X1.4587Y-1.7244
X1.4646Y-0.2598
X1.5417Y-0.1413
X1.5472Y-0.7854
X1.5472Y-1.0118
X1.5492Y-0.315
X1.5512Y-1.0807
X1.5591Y-1.3996
X1.5591Y-1.6732
X1.628Y-0.7854
X1.6319Y-1.2067
X1.6811Y-0.189
X1.6811Y-1.0118
X1.685Y-1.128
X1.7244Y-0.0787
X1.752Y-0.7854
X1.7598Y-1.0512
X1.7598Y-1.2047
X1.811Y-1.315
X1.8425Y-0.7441
X1.8445Y-0.1437
X1.8583Y-0.563
X1.874Y-0.6024
X1.8819Y-1.0512
X1.8957Y-0.6476
X1.8957Y-0.7874
X1.9094Y-0.5551
X1.937Y-0.5984
X1.939Y-0.061
X1.9685Y-1.5748
X1.9705Y-1.2854
X1.9724Y-1.5
X2.0354Y-0.8583
X2.0394Y-1.0394
X2.0433Y-1.4764
X2.0512Y-0.5
X2.0551Y-0.2047
X2.0551Y-1.5197
X2.0866Y-1.8268
X2.0945Y-0.7047
X2.1142Y-1.1634
X2.126Y-1.6555
X2.1654Y-1.0276
X2.1732Y-0.8504
X2.189Y-0.0433
X2.1969Y-1.0787
X2.2756Y-1.1299
X2.2835Y-0.2953
X2.2874Y-0.4449
X2.2913Y-1.0472
X2.3484Y-1.2087
X2.3543Y-1.0551
X2.3661Y-0.8504
X2.374Y-0.1437
X2.4134Y-1.8268
X2.4252Y-1.2756
X2.4291Y-0.3425
X2.437Y-0.4016
X2.4921Y-1.0551
X2.5Y-0.8465
X2.5059Y-1.1575
X2.5059Y-1.5472
X2.5079Y-0.3386
X2.5134Y-0.0906
X2.5472Y-0.4016
X2.5512Y-0.2559
X2.5846Y-1.5945
X2.6299Y-0.5157
X2.6496Y-1.122
X2.6496Y-1.7244
X2.6575Y-1.5315
X2.7106Y-1.6319
X2.7106Y-1.7815
X2.8327Y-1.2087
X2.8406Y-0.5689
X2.9016Y-1.2874
X2.9075Y-0.5728
X2.9075Y-0.8976
T2
X0.2815Y-0.8465
X0.2815Y-1.0465
X0.5236Y-0.8433
X0.5236Y-1.0433
X0.7539Y-0.8386
X0.7539Y-1.0386
X1.478Y0.0228
X1.678Y0.0228
X2.3134Y0.0224
X2.5134Y0.0224
T3
X0.0866Y-1.4724
X0.1654Y-1.4724
T4
X2.3484Y-1.6555
X2.4272Y-1.6555
X2.5059Y-1.6555
X2.5846Y-1.6555
T5
X2.8346Y-1.1083
X2.8346Y-1.2854
X2.8366Y-0.6811
X2.8366Y-0.8583
X2.8406Y-0.2539
X2.8406Y-0.4311
T6
X0.252Y-1.6575
X0.352Y-1.6575
X0.452Y-1.6575
X0.552Y-1.6575
X0.652Y-1.6575
X0.752Y-1.6575
X0.852Y-1.6575
X0.952Y-1.6575
X1.052Y-1.6575
X1.1122Y0.0409
X1.152Y-1.6575
X1.8437Y0.0173
X1.9437Y0.0173
X1.9756Y-1.3957
X2.0437Y0.0173
X2.0756Y-1.3957
X2.1437Y0.0173
X2.1756Y-1.3957
X2.2756Y-1.3957
X2.811Y-1.5323
X2.811Y-1.6323
X2.811Y-1.7323
T7
X0.0276Y-0.6382
X0.0276Y-1.2382
X0.1276Y-0.6382
X0.1276Y-1.2382
X0.2276Y-0.6382
X0.2276Y-1.2382
X0.3276Y-0.6382
X0.3276Y-1.2382
X0.4276Y-0.6382
X0.4276Y-1.2382
X0.5276Y-0.6382
X0.5276Y-1.2382
X0.6276Y-0.6382
X0.6276Y-1.2382
X0.7276Y-0.6382
X0.7276Y-1.2382
X0.8276Y-0.6382
X0.8276Y-1.2382
X0.9276Y-0.6382
X0.9276Y-1.2382
X1.0276Y-0.6382
X1.0276Y-1.2382
X1.1276Y-0.6382
X1.1276Y-1.2382
X1.2276Y-0.6382
X1.2276Y-1.2382
T8
X-0.0079Y-0.2205
X-0.0079Y-0.4764
X0.1693Y-0.2205
X0.1693Y-0.4764
T9
X1.3602Y-1.5807
X1.5602Y-1.5807
X1.7602Y-1.5807
X2.7366Y-1.0591
X2.7366Y-1.335
X2.7386Y-0.6319
X2.7386Y-0.9079
X2.7425Y-0.2047
X2.7425Y-0.4807
T10
X0.0Y0.0
X0.0Y-1.7323
X2.8346Y0.0
M30
